%TF.GenerationSoftware,KiCad,Pcbnew,8.0.2*%
%TF.CreationDate,2024-07-10T18:46:52-04:00*%
%TF.ProjectId,EMGs,454d4773-2e6b-4696-9361-645f70636258,rev?*%
%TF.SameCoordinates,Original*%
%TF.FileFunction,Soldermask,Top*%
%TF.FilePolarity,Negative*%
%FSLAX46Y46*%
G04 Gerber Fmt 4.6, Leading zero omitted, Abs format (unit mm)*
G04 Created by KiCad (PCBNEW 8.0.2) date 2024-07-10 18:46:52*
%MOMM*%
%LPD*%
G01*
G04 APERTURE LIST*
G04 Aperture macros list*
%AMRoundRect*
0 Rectangle with rounded corners*
0 $1 Rounding radius*
0 $2 $3 $4 $5 $6 $7 $8 $9 X,Y pos of 4 corners*
0 Add a 4 corners polygon primitive as box body*
4,1,4,$2,$3,$4,$5,$6,$7,$8,$9,$2,$3,0*
0 Add four circle primitives for the rounded corners*
1,1,$1+$1,$2,$3*
1,1,$1+$1,$4,$5*
1,1,$1+$1,$6,$7*
1,1,$1+$1,$8,$9*
0 Add four rect primitives between the rounded corners*
20,1,$1+$1,$2,$3,$4,$5,0*
20,1,$1+$1,$4,$5,$6,$7,0*
20,1,$1+$1,$6,$7,$8,$9,0*
20,1,$1+$1,$8,$9,$2,$3,0*%
G04 Aperture macros list end*
%ADD10R,1.130000X1.130000*%
%ADD11C,1.130000*%
%ADD12RoundRect,0.250000X-0.325000X-0.650000X0.325000X-0.650000X0.325000X0.650000X-0.325000X0.650000X0*%
%ADD13RoundRect,0.250000X-0.650000X0.325000X-0.650000X-0.325000X0.650000X-0.325000X0.650000X0.325000X0*%
%ADD14RoundRect,0.250000X0.450000X-0.262500X0.450000X0.262500X-0.450000X0.262500X-0.450000X-0.262500X0*%
%ADD15RoundRect,0.250000X0.650000X-0.325000X0.650000X0.325000X-0.650000X0.325000X-0.650000X-0.325000X0*%
%ADD16RoundRect,0.250000X0.262500X0.450000X-0.262500X0.450000X-0.262500X-0.450000X0.262500X-0.450000X0*%
%ADD17R,1.700000X1.700000*%
%ADD18O,1.700000X1.700000*%
%ADD19RoundRect,0.250000X-0.262500X-0.450000X0.262500X-0.450000X0.262500X0.450000X-0.262500X0.450000X0*%
%ADD20R,1.528000X0.650000*%
G04 APERTURE END LIST*
D10*
X151500000Y-91460000D03*
D11*
X151500000Y-94000000D03*
X151500000Y-96540000D03*
X151500000Y-99080000D03*
X159440000Y-99080000D03*
X159440000Y-96540000D03*
X159440000Y-94000000D03*
X159440000Y-91460000D03*
D12*
X167550000Y-91500000D03*
X170500000Y-91500000D03*
X162500000Y-91500000D03*
X165450000Y-91500000D03*
X168000000Y-95500000D03*
X170950000Y-95500000D03*
D13*
X153000000Y-85050000D03*
X153000000Y-88000000D03*
D14*
X159500000Y-103825000D03*
X159500000Y-102000000D03*
D15*
X158000000Y-87950000D03*
X158000000Y-85000000D03*
D14*
X162000000Y-87325000D03*
X162000000Y-85500000D03*
D16*
X139325000Y-88500000D03*
X137500000Y-88500000D03*
D17*
X175500000Y-97080000D03*
D18*
X175500000Y-94540000D03*
X175500000Y-92000000D03*
D14*
X149000000Y-96000000D03*
X149000000Y-94175000D03*
D13*
X145000000Y-93050000D03*
X145000000Y-96000000D03*
D19*
X162000000Y-99000000D03*
X163825000Y-99000000D03*
D12*
X143500000Y-90000000D03*
X146450000Y-90000000D03*
D14*
X142000000Y-98325000D03*
X142000000Y-96500000D03*
D13*
X131500000Y-92000000D03*
X131500000Y-94950000D03*
D19*
X168175000Y-99000000D03*
X170000000Y-99000000D03*
X149000000Y-88000000D03*
X150825000Y-88000000D03*
D13*
X162000000Y-101500000D03*
X162000000Y-104450000D03*
D20*
X135500000Y-90690000D03*
X135500000Y-91960000D03*
X135500000Y-93230000D03*
X135500000Y-94500000D03*
X140922000Y-94500000D03*
X140922000Y-93230000D03*
X140922000Y-91960000D03*
X140922000Y-90690000D03*
D17*
X128000000Y-92460000D03*
D18*
X128000000Y-95000000D03*
X128000000Y-97540000D03*
M02*
