%TF.GenerationSoftware,KiCad,Pcbnew,8.0.2*%
%TF.CreationDate,2024-07-10T18:46:51-04:00*%
%TF.ProjectId,EMGs,454d4773-2e6b-4696-9361-645f70636258,rev?*%
%TF.SameCoordinates,Original*%
%TF.FileFunction,Copper,L2,Bot*%
%TF.FilePolarity,Positive*%
%FSLAX46Y46*%
G04 Gerber Fmt 4.6, Leading zero omitted, Abs format (unit mm)*
G04 Created by KiCad (PCBNEW 8.0.2) date 2024-07-10 18:46:51*
%MOMM*%
%LPD*%
G01*
G04 APERTURE LIST*
%TA.AperFunction,ComponentPad*%
%ADD10R,1.130000X1.130000*%
%TD*%
%TA.AperFunction,ComponentPad*%
%ADD11C,1.130000*%
%TD*%
%TA.AperFunction,ComponentPad*%
%ADD12R,1.700000X1.700000*%
%TD*%
%TA.AperFunction,ComponentPad*%
%ADD13O,1.700000X1.700000*%
%TD*%
%TA.AperFunction,ViaPad*%
%ADD14C,0.600000*%
%TD*%
G04 APERTURE END LIST*
D10*
X151500000Y-91460000D03*
D11*
X151500000Y-94000000D03*
X151500000Y-96540000D03*
X151500000Y-99080000D03*
X159440000Y-99080000D03*
X159440000Y-96540000D03*
X159440000Y-94000000D03*
X159440000Y-91460000D03*
D12*
X175500000Y-97080000D03*
D13*
X175500000Y-94540000D03*
X175500000Y-92000000D03*
D12*
X128000000Y-92460000D03*
D13*
X128000000Y-95000000D03*
X128000000Y-97540000D03*
D14*
X137000000Y-100000000D03*
X135500000Y-95500000D03*
X171500000Y-91500000D03*
X179500000Y-85000000D03*
X165500000Y-93000000D03*
X124500000Y-104000000D03*
X158000000Y-104000000D03*
X146500000Y-88500000D03*
X172000000Y-95500000D03*
X150000000Y-99000000D03*
X124500000Y-85500000D03*
X163500000Y-104500000D03*
X155000000Y-93500000D03*
X166000000Y-86000000D03*
X174000000Y-88500000D03*
X174000000Y-94000000D03*
X179000000Y-105000000D03*
%TA.AperFunction,Conductor*%
G36*
X180442539Y-84020185D02*
G01*
X180488294Y-84072989D01*
X180499500Y-84124500D01*
X180499500Y-106375500D01*
X180479815Y-106442539D01*
X180427011Y-106488294D01*
X180375500Y-106499500D01*
X123624500Y-106499500D01*
X123557461Y-106479815D01*
X123511706Y-106427011D01*
X123500500Y-106375500D01*
X123500500Y-99080000D01*
X150429847Y-99080000D01*
X150450409Y-99288774D01*
X150511309Y-99489534D01*
X150589892Y-99636552D01*
X150589893Y-99636552D01*
X151135000Y-99091446D01*
X151135000Y-99128053D01*
X151159874Y-99220885D01*
X151207927Y-99304116D01*
X151275884Y-99372073D01*
X151359115Y-99420126D01*
X151451947Y-99445000D01*
X151488553Y-99445000D01*
X150943445Y-99990106D01*
X151090465Y-100068690D01*
X151291227Y-100129590D01*
X151291223Y-100129590D01*
X151500000Y-100150152D01*
X151708774Y-100129590D01*
X151909532Y-100068690D01*
X152056553Y-99990105D01*
X151511448Y-99445000D01*
X151548053Y-99445000D01*
X151640885Y-99420126D01*
X151724116Y-99372073D01*
X151792073Y-99304116D01*
X151840126Y-99220885D01*
X151865000Y-99128053D01*
X151865000Y-99091447D01*
X152410105Y-99636552D01*
X152488690Y-99489532D01*
X152549590Y-99288774D01*
X152570152Y-99080000D01*
X158369345Y-99080000D01*
X158389917Y-99288876D01*
X158450844Y-99489723D01*
X158549779Y-99674818D01*
X158549783Y-99674825D01*
X158682932Y-99837067D01*
X158845174Y-99970216D01*
X158845181Y-99970220D01*
X159029406Y-100068690D01*
X159030278Y-100069156D01*
X159231126Y-100130083D01*
X159440000Y-100150655D01*
X159648874Y-100130083D01*
X159849722Y-100069156D01*
X160034824Y-99970217D01*
X160197067Y-99837067D01*
X160330217Y-99674824D01*
X160429156Y-99489722D01*
X160490083Y-99288874D01*
X160510655Y-99080000D01*
X160490083Y-98871126D01*
X160429156Y-98670278D01*
X160330217Y-98485176D01*
X160330216Y-98485174D01*
X160197067Y-98322932D01*
X160034825Y-98189783D01*
X160034818Y-98189779D01*
X159849723Y-98090844D01*
X159648876Y-98029917D01*
X159440000Y-98009345D01*
X159231123Y-98029917D01*
X159030276Y-98090844D01*
X158845181Y-98189779D01*
X158845174Y-98189783D01*
X158682932Y-98322932D01*
X158549783Y-98485174D01*
X158549779Y-98485181D01*
X158450844Y-98670276D01*
X158389917Y-98871123D01*
X158369345Y-99080000D01*
X152570152Y-99080000D01*
X152549590Y-98871225D01*
X152488690Y-98670465D01*
X152410106Y-98523445D01*
X151865000Y-99068551D01*
X151865000Y-99031947D01*
X151840126Y-98939115D01*
X151792073Y-98855884D01*
X151724116Y-98787927D01*
X151640885Y-98739874D01*
X151548053Y-98715000D01*
X151511448Y-98715000D01*
X152056552Y-98169893D01*
X152056552Y-98169892D01*
X151909534Y-98091309D01*
X151708772Y-98030409D01*
X151708776Y-98030409D01*
X151500000Y-98009847D01*
X151291225Y-98030409D01*
X151090471Y-98091307D01*
X150943446Y-98169893D01*
X151488553Y-98715000D01*
X151451947Y-98715000D01*
X151359115Y-98739874D01*
X151275884Y-98787927D01*
X151207927Y-98855884D01*
X151159874Y-98939115D01*
X151135000Y-99031947D01*
X151135000Y-99068552D01*
X150589893Y-98523446D01*
X150511307Y-98670471D01*
X150450409Y-98871225D01*
X150429847Y-99080000D01*
X123500500Y-99080000D01*
X123500500Y-94999999D01*
X126644341Y-94999999D01*
X126644341Y-95000000D01*
X126664936Y-95235403D01*
X126664938Y-95235413D01*
X126726094Y-95463655D01*
X126726096Y-95463659D01*
X126726097Y-95463663D01*
X126819585Y-95664149D01*
X126825965Y-95677830D01*
X126825967Y-95677834D01*
X126961501Y-95871395D01*
X126961506Y-95871402D01*
X127128597Y-96038493D01*
X127128603Y-96038498D01*
X127314158Y-96168425D01*
X127357783Y-96223002D01*
X127364977Y-96292500D01*
X127333454Y-96354855D01*
X127314158Y-96371575D01*
X127128597Y-96501505D01*
X126961505Y-96668597D01*
X126825965Y-96862169D01*
X126825964Y-96862171D01*
X126726098Y-97076335D01*
X126726094Y-97076344D01*
X126664938Y-97304586D01*
X126664936Y-97304596D01*
X126644341Y-97539999D01*
X126644341Y-97540000D01*
X126664936Y-97775403D01*
X126664938Y-97775413D01*
X126726094Y-98003655D01*
X126726096Y-98003659D01*
X126726097Y-98003663D01*
X126825965Y-98217830D01*
X126825967Y-98217834D01*
X126874781Y-98287547D01*
X126961505Y-98411401D01*
X127128599Y-98578495D01*
X127225384Y-98646265D01*
X127322165Y-98714032D01*
X127322167Y-98714033D01*
X127322170Y-98714035D01*
X127536337Y-98813903D01*
X127764592Y-98875063D01*
X127952918Y-98891539D01*
X127999999Y-98895659D01*
X128000000Y-98895659D01*
X128000001Y-98895659D01*
X128039234Y-98892226D01*
X128235408Y-98875063D01*
X128463663Y-98813903D01*
X128677830Y-98714035D01*
X128871401Y-98578495D01*
X129038495Y-98411401D01*
X129174035Y-98217830D01*
X129273903Y-98003663D01*
X129335063Y-97775408D01*
X129355659Y-97540000D01*
X129335063Y-97304592D01*
X129273903Y-97076337D01*
X129174035Y-96862171D01*
X129094706Y-96748876D01*
X129038494Y-96668597D01*
X128909896Y-96540000D01*
X150429345Y-96540000D01*
X150449917Y-96748876D01*
X150510844Y-96949723D01*
X150609779Y-97134818D01*
X150609783Y-97134825D01*
X150742932Y-97297067D01*
X150905174Y-97430216D01*
X150905181Y-97430220D01*
X151090276Y-97529155D01*
X151090278Y-97529156D01*
X151291126Y-97590083D01*
X151500000Y-97610655D01*
X151708874Y-97590083D01*
X151909722Y-97529156D01*
X152094824Y-97430217D01*
X152257067Y-97297067D01*
X152390217Y-97134824D01*
X152489156Y-96949722D01*
X152550083Y-96748874D01*
X152570655Y-96540000D01*
X158369345Y-96540000D01*
X158389917Y-96748876D01*
X158450844Y-96949723D01*
X158549779Y-97134818D01*
X158549783Y-97134825D01*
X158682932Y-97297067D01*
X158845174Y-97430216D01*
X158845181Y-97430220D01*
X159030276Y-97529155D01*
X159030278Y-97529156D01*
X159231126Y-97590083D01*
X159440000Y-97610655D01*
X159648874Y-97590083D01*
X159849722Y-97529156D01*
X160034824Y-97430217D01*
X160197067Y-97297067D01*
X160330217Y-97134824D01*
X160429156Y-96949722D01*
X160490083Y-96748874D01*
X160510655Y-96540000D01*
X160490083Y-96331126D01*
X160429156Y-96130278D01*
X160352930Y-95987669D01*
X160330220Y-95945181D01*
X160330216Y-95945174D01*
X160197067Y-95782932D01*
X160034825Y-95649783D01*
X160034818Y-95649779D01*
X159849723Y-95550844D01*
X159648876Y-95489917D01*
X159440000Y-95469345D01*
X159231123Y-95489917D01*
X159030276Y-95550844D01*
X158845181Y-95649779D01*
X158845174Y-95649783D01*
X158682932Y-95782932D01*
X158549783Y-95945174D01*
X158549779Y-95945181D01*
X158450844Y-96130276D01*
X158389917Y-96331123D01*
X158369345Y-96540000D01*
X152570655Y-96540000D01*
X152550083Y-96331126D01*
X152489156Y-96130278D01*
X152412930Y-95987669D01*
X152390220Y-95945181D01*
X152390216Y-95945174D01*
X152257067Y-95782932D01*
X152094825Y-95649783D01*
X152094818Y-95649779D01*
X151909723Y-95550844D01*
X151708876Y-95489917D01*
X151500000Y-95469345D01*
X151291123Y-95489917D01*
X151090276Y-95550844D01*
X150905181Y-95649779D01*
X150905174Y-95649783D01*
X150742932Y-95782932D01*
X150609783Y-95945174D01*
X150609779Y-95945181D01*
X150510844Y-96130276D01*
X150449917Y-96331123D01*
X150429345Y-96540000D01*
X128909896Y-96540000D01*
X128871402Y-96501506D01*
X128871396Y-96501501D01*
X128685842Y-96371575D01*
X128642217Y-96316998D01*
X128635023Y-96247500D01*
X128666546Y-96185145D01*
X128685842Y-96168425D01*
X128751405Y-96122517D01*
X128871401Y-96038495D01*
X129038495Y-95871401D01*
X129174035Y-95677830D01*
X129273903Y-95463663D01*
X129335063Y-95235408D01*
X129355659Y-95000000D01*
X129335063Y-94764592D01*
X129273903Y-94536337D01*
X129174035Y-94322171D01*
X129111592Y-94232993D01*
X129038496Y-94128600D01*
X128983971Y-94074075D01*
X128916567Y-94006671D01*
X128912924Y-94000000D01*
X150429345Y-94000000D01*
X150449917Y-94208876D01*
X150510844Y-94409723D01*
X150609779Y-94594818D01*
X150609783Y-94594825D01*
X150742932Y-94757067D01*
X150905174Y-94890216D01*
X150905181Y-94890220D01*
X151090276Y-94989155D01*
X151090278Y-94989156D01*
X151291126Y-95050083D01*
X151500000Y-95070655D01*
X151708874Y-95050083D01*
X151909722Y-94989156D01*
X152094824Y-94890217D01*
X152257067Y-94757067D01*
X152390217Y-94594824D01*
X152489156Y-94409722D01*
X152550083Y-94208874D01*
X152570655Y-94000000D01*
X158369345Y-94000000D01*
X158389917Y-94208876D01*
X158450844Y-94409723D01*
X158549779Y-94594818D01*
X158549783Y-94594825D01*
X158682932Y-94757067D01*
X158845174Y-94890216D01*
X158845181Y-94890220D01*
X159030276Y-94989155D01*
X159030278Y-94989156D01*
X159231126Y-95050083D01*
X159440000Y-95070655D01*
X159648874Y-95050083D01*
X159849722Y-94989156D01*
X160034824Y-94890217D01*
X160197067Y-94757067D01*
X160330217Y-94594824D01*
X160429156Y-94409722D01*
X160490083Y-94208874D01*
X160510655Y-94000000D01*
X160490083Y-93791126D01*
X160429156Y-93590278D01*
X160381912Y-93501890D01*
X160330220Y-93405181D01*
X160330216Y-93405174D01*
X160197067Y-93242932D01*
X160034825Y-93109783D01*
X160034818Y-93109779D01*
X159849723Y-93010844D01*
X159648876Y-92949917D01*
X159440000Y-92929345D01*
X159231123Y-92949917D01*
X159030276Y-93010844D01*
X158845181Y-93109779D01*
X158845174Y-93109783D01*
X158682932Y-93242932D01*
X158549783Y-93405174D01*
X158549779Y-93405181D01*
X158450844Y-93590276D01*
X158389917Y-93791123D01*
X158369345Y-94000000D01*
X152570655Y-94000000D01*
X152550083Y-93791126D01*
X152489156Y-93590278D01*
X152441912Y-93501890D01*
X152390220Y-93405181D01*
X152390216Y-93405174D01*
X152257067Y-93242932D01*
X152094825Y-93109783D01*
X152094818Y-93109779D01*
X151909723Y-93010844D01*
X151708876Y-92949917D01*
X151500000Y-92929345D01*
X151291123Y-92949917D01*
X151090276Y-93010844D01*
X150905181Y-93109779D01*
X150905174Y-93109783D01*
X150742932Y-93242932D01*
X150609783Y-93405174D01*
X150609779Y-93405181D01*
X150510844Y-93590276D01*
X150449917Y-93791123D01*
X150429345Y-94000000D01*
X128912924Y-94000000D01*
X128883084Y-93945351D01*
X128888068Y-93875659D01*
X128929939Y-93819725D01*
X128960915Y-93802810D01*
X129092331Y-93753796D01*
X129207546Y-93667546D01*
X129293796Y-93552331D01*
X129344091Y-93417483D01*
X129350500Y-93357873D01*
X129350499Y-91562128D01*
X129344091Y-91502517D01*
X129328233Y-91460000D01*
X129293797Y-91367671D01*
X129293793Y-91367664D01*
X129207547Y-91252455D01*
X129207544Y-91252452D01*
X129092335Y-91166206D01*
X129092328Y-91166202D01*
X128957482Y-91115908D01*
X128957483Y-91115908D01*
X128897883Y-91109501D01*
X128897881Y-91109500D01*
X128897873Y-91109500D01*
X128897864Y-91109500D01*
X127102129Y-91109500D01*
X127102123Y-91109501D01*
X127042516Y-91115908D01*
X126907671Y-91166202D01*
X126907664Y-91166206D01*
X126792455Y-91252452D01*
X126792452Y-91252455D01*
X126706206Y-91367664D01*
X126706202Y-91367671D01*
X126655908Y-91502517D01*
X126652272Y-91536344D01*
X126649501Y-91562123D01*
X126649500Y-91562135D01*
X126649500Y-93357870D01*
X126649501Y-93357876D01*
X126655908Y-93417483D01*
X126706202Y-93552328D01*
X126706206Y-93552335D01*
X126792452Y-93667544D01*
X126792455Y-93667547D01*
X126907664Y-93753793D01*
X126907671Y-93753797D01*
X127039081Y-93802810D01*
X127095015Y-93844681D01*
X127119432Y-93910145D01*
X127104580Y-93978418D01*
X127083430Y-94006673D01*
X126961503Y-94128600D01*
X126825965Y-94322169D01*
X126825964Y-94322171D01*
X126726098Y-94536335D01*
X126726094Y-94536344D01*
X126664938Y-94764586D01*
X126664936Y-94764596D01*
X126644341Y-94999999D01*
X123500500Y-94999999D01*
X123500500Y-90847135D01*
X150434500Y-90847135D01*
X150434500Y-92072870D01*
X150434501Y-92072876D01*
X150440908Y-92132483D01*
X150491202Y-92267328D01*
X150491206Y-92267335D01*
X150577452Y-92382544D01*
X150577455Y-92382547D01*
X150692664Y-92468793D01*
X150692671Y-92468797D01*
X150827517Y-92519091D01*
X150827516Y-92519091D01*
X150834444Y-92519835D01*
X150887127Y-92525500D01*
X152112872Y-92525499D01*
X152172483Y-92519091D01*
X152307331Y-92468796D01*
X152422546Y-92382546D01*
X152508796Y-92267331D01*
X152559091Y-92132483D01*
X152565500Y-92072873D01*
X152565499Y-91460000D01*
X158369345Y-91460000D01*
X158389917Y-91668876D01*
X158450844Y-91869723D01*
X158549779Y-92054818D01*
X158549783Y-92054825D01*
X158682932Y-92217067D01*
X158845174Y-92350216D01*
X158845181Y-92350220D01*
X158905659Y-92382546D01*
X159030278Y-92449156D01*
X159231126Y-92510083D01*
X159440000Y-92530655D01*
X159648874Y-92510083D01*
X159849722Y-92449156D01*
X160034824Y-92350217D01*
X160197067Y-92217067D01*
X160330217Y-92054824D01*
X160359522Y-91999999D01*
X174144341Y-91999999D01*
X174144341Y-92000000D01*
X174164936Y-92235403D01*
X174164938Y-92235413D01*
X174226094Y-92463655D01*
X174226096Y-92463659D01*
X174226097Y-92463663D01*
X174257336Y-92530654D01*
X174325965Y-92677830D01*
X174325967Y-92677834D01*
X174461501Y-92871395D01*
X174461506Y-92871402D01*
X174628597Y-93038493D01*
X174628603Y-93038498D01*
X174814594Y-93168730D01*
X174858219Y-93223307D01*
X174865413Y-93292805D01*
X174833890Y-93355160D01*
X174814595Y-93371880D01*
X174628922Y-93501890D01*
X174628920Y-93501891D01*
X174461891Y-93668920D01*
X174461886Y-93668926D01*
X174326400Y-93862420D01*
X174326399Y-93862422D01*
X174226570Y-94076507D01*
X174226567Y-94076513D01*
X174169364Y-94289999D01*
X174169364Y-94290000D01*
X175066988Y-94290000D01*
X175034075Y-94347007D01*
X175000000Y-94474174D01*
X175000000Y-94605826D01*
X175034075Y-94732993D01*
X175066988Y-94790000D01*
X174169364Y-94790000D01*
X174226567Y-95003486D01*
X174226570Y-95003492D01*
X174326399Y-95217578D01*
X174461894Y-95411082D01*
X174583946Y-95533134D01*
X174617431Y-95594457D01*
X174612447Y-95664149D01*
X174570575Y-95720082D01*
X174539598Y-95736997D01*
X174407671Y-95786202D01*
X174407664Y-95786206D01*
X174292455Y-95872452D01*
X174292452Y-95872455D01*
X174206206Y-95987664D01*
X174206202Y-95987671D01*
X174155908Y-96122517D01*
X174150973Y-96168425D01*
X174149501Y-96182123D01*
X174149500Y-96182135D01*
X174149500Y-97977870D01*
X174149501Y-97977876D01*
X174155908Y-98037483D01*
X174206202Y-98172328D01*
X174206206Y-98172335D01*
X174292452Y-98287544D01*
X174292455Y-98287547D01*
X174407664Y-98373793D01*
X174407671Y-98373797D01*
X174542517Y-98424091D01*
X174542516Y-98424091D01*
X174549444Y-98424835D01*
X174602127Y-98430500D01*
X176397872Y-98430499D01*
X176457483Y-98424091D01*
X176592331Y-98373796D01*
X176707546Y-98287546D01*
X176793796Y-98172331D01*
X176844091Y-98037483D01*
X176850500Y-97977873D01*
X176850499Y-96182128D01*
X176844091Y-96122517D01*
X176793796Y-95987669D01*
X176793795Y-95987668D01*
X176793793Y-95987664D01*
X176707547Y-95872455D01*
X176707544Y-95872452D01*
X176592335Y-95786206D01*
X176592328Y-95786202D01*
X176460401Y-95736997D01*
X176404467Y-95695126D01*
X176380050Y-95629662D01*
X176394902Y-95561389D01*
X176416053Y-95533133D01*
X176538108Y-95411078D01*
X176673600Y-95217578D01*
X176773429Y-95003492D01*
X176773432Y-95003486D01*
X176830636Y-94790000D01*
X175933012Y-94790000D01*
X175965925Y-94732993D01*
X176000000Y-94605826D01*
X176000000Y-94474174D01*
X175965925Y-94347007D01*
X175933012Y-94290000D01*
X176830636Y-94290000D01*
X176830635Y-94289999D01*
X176773432Y-94076513D01*
X176773429Y-94076507D01*
X176673600Y-93862422D01*
X176673599Y-93862420D01*
X176538113Y-93668926D01*
X176538108Y-93668920D01*
X176371078Y-93501890D01*
X176185405Y-93371879D01*
X176141780Y-93317302D01*
X176134588Y-93247804D01*
X176166110Y-93185449D01*
X176185406Y-93168730D01*
X176269591Y-93109783D01*
X176371401Y-93038495D01*
X176538495Y-92871401D01*
X176674035Y-92677830D01*
X176773903Y-92463663D01*
X176835063Y-92235408D01*
X176855659Y-92000000D01*
X176835063Y-91764592D01*
X176788626Y-91591285D01*
X176773905Y-91536344D01*
X176773904Y-91536343D01*
X176773903Y-91536337D01*
X176674035Y-91322171D01*
X176625218Y-91252452D01*
X176538494Y-91128597D01*
X176371402Y-90961506D01*
X176371395Y-90961501D01*
X176177834Y-90825967D01*
X176177830Y-90825965D01*
X176095376Y-90787516D01*
X175963663Y-90726097D01*
X175963659Y-90726096D01*
X175963655Y-90726094D01*
X175735413Y-90664938D01*
X175735403Y-90664936D01*
X175500001Y-90644341D01*
X175499999Y-90644341D01*
X175264596Y-90664936D01*
X175264586Y-90664938D01*
X175036344Y-90726094D01*
X175036335Y-90726098D01*
X174822171Y-90825964D01*
X174822169Y-90825965D01*
X174628597Y-90961505D01*
X174461505Y-91128597D01*
X174325965Y-91322169D01*
X174325964Y-91322171D01*
X174226098Y-91536335D01*
X174226094Y-91536344D01*
X174164938Y-91764586D01*
X174164936Y-91764596D01*
X174144341Y-91999999D01*
X160359522Y-91999999D01*
X160429156Y-91869722D01*
X160490083Y-91668874D01*
X160510655Y-91460000D01*
X160490083Y-91251126D01*
X160429156Y-91050278D01*
X160429155Y-91050276D01*
X160330220Y-90865181D01*
X160330216Y-90865174D01*
X160197067Y-90702932D01*
X160034825Y-90569783D01*
X160034818Y-90569779D01*
X159849723Y-90470844D01*
X159648876Y-90409917D01*
X159440000Y-90389345D01*
X159231123Y-90409917D01*
X159030276Y-90470844D01*
X158845181Y-90569779D01*
X158845174Y-90569783D01*
X158682932Y-90702932D01*
X158549783Y-90865174D01*
X158549779Y-90865181D01*
X158450844Y-91050276D01*
X158389917Y-91251123D01*
X158369345Y-91460000D01*
X152565499Y-91460000D01*
X152565499Y-90847128D01*
X152559091Y-90787517D01*
X152536183Y-90726098D01*
X152508797Y-90652671D01*
X152508793Y-90652664D01*
X152422547Y-90537455D01*
X152422544Y-90537452D01*
X152307335Y-90451206D01*
X152307328Y-90451202D01*
X152172482Y-90400908D01*
X152172483Y-90400908D01*
X152112883Y-90394501D01*
X152112881Y-90394500D01*
X152112873Y-90394500D01*
X152112864Y-90394500D01*
X150887129Y-90394500D01*
X150887123Y-90394501D01*
X150827516Y-90400908D01*
X150692671Y-90451202D01*
X150692664Y-90451206D01*
X150577455Y-90537452D01*
X150577452Y-90537455D01*
X150491206Y-90652664D01*
X150491202Y-90652671D01*
X150440908Y-90787517D01*
X150436775Y-90825964D01*
X150434501Y-90847123D01*
X150434500Y-90847135D01*
X123500500Y-90847135D01*
X123500500Y-84124500D01*
X123520185Y-84057461D01*
X123572989Y-84011706D01*
X123624500Y-84000500D01*
X180375500Y-84000500D01*
X180442539Y-84020185D01*
G37*
%TD.AperFunction*%
M02*
