%TF.GenerationSoftware,KiCad,Pcbnew,8.0.2*%
%TF.CreationDate,2024-07-10T18:46:51-04:00*%
%TF.ProjectId,EMGs,454d4773-2e6b-4696-9361-645f70636258,rev?*%
%TF.SameCoordinates,Original*%
%TF.FileFunction,Legend,Top*%
%TF.FilePolarity,Positive*%
%FSLAX46Y46*%
G04 Gerber Fmt 4.6, Leading zero omitted, Abs format (unit mm)*
G04 Created by KiCad (PCBNEW 8.0.2) date 2024-07-10 18:46:51*
%MOMM*%
%LPD*%
G01*
G04 APERTURE LIST*
G04 Aperture macros list*
%AMRoundRect*
0 Rectangle with rounded corners*
0 $1 Rounding radius*
0 $2 $3 $4 $5 $6 $7 $8 $9 X,Y pos of 4 corners*
0 Add a 4 corners polygon primitive as box body*
4,1,4,$2,$3,$4,$5,$6,$7,$8,$9,$2,$3,0*
0 Add four circle primitives for the rounded corners*
1,1,$1+$1,$2,$3*
1,1,$1+$1,$4,$5*
1,1,$1+$1,$6,$7*
1,1,$1+$1,$8,$9*
0 Add four rect primitives between the rounded corners*
20,1,$1+$1,$2,$3,$4,$5,0*
20,1,$1+$1,$4,$5,$6,$7,0*
20,1,$1+$1,$6,$7,$8,$9,0*
20,1,$1+$1,$8,$9,$2,$3,0*%
G04 Aperture macros list end*
%ADD10C,0.100000*%
%ADD11C,0.254000*%
%ADD12C,0.150000*%
%ADD13C,0.200000*%
%ADD14C,0.120000*%
%ADD15R,1.130000X1.130000*%
%ADD16C,1.130000*%
%ADD17RoundRect,0.250000X-0.325000X-0.650000X0.325000X-0.650000X0.325000X0.650000X-0.325000X0.650000X0*%
%ADD18RoundRect,0.250000X-0.650000X0.325000X-0.650000X-0.325000X0.650000X-0.325000X0.650000X0.325000X0*%
%ADD19RoundRect,0.250000X0.450000X-0.262500X0.450000X0.262500X-0.450000X0.262500X-0.450000X-0.262500X0*%
%ADD20RoundRect,0.250000X0.650000X-0.325000X0.650000X0.325000X-0.650000X0.325000X-0.650000X-0.325000X0*%
%ADD21RoundRect,0.250000X0.262500X0.450000X-0.262500X0.450000X-0.262500X-0.450000X0.262500X-0.450000X0*%
%ADD22R,1.700000X1.700000*%
%ADD23O,1.700000X1.700000*%
%ADD24RoundRect,0.250000X-0.262500X-0.450000X0.262500X-0.450000X0.262500X0.450000X-0.262500X0.450000X0*%
%ADD25R,1.528000X0.650000*%
G04 APERTURE END LIST*
D10*
X177661027Y-96872419D02*
X177994360Y-97872419D01*
X177994360Y-97872419D02*
X178327693Y-96872419D01*
X179232455Y-97777180D02*
X179184836Y-97824800D01*
X179184836Y-97824800D02*
X179041979Y-97872419D01*
X179041979Y-97872419D02*
X178946741Y-97872419D01*
X178946741Y-97872419D02*
X178803884Y-97824800D01*
X178803884Y-97824800D02*
X178708646Y-97729561D01*
X178708646Y-97729561D02*
X178661027Y-97634323D01*
X178661027Y-97634323D02*
X178613408Y-97443847D01*
X178613408Y-97443847D02*
X178613408Y-97300990D01*
X178613408Y-97300990D02*
X178661027Y-97110514D01*
X178661027Y-97110514D02*
X178708646Y-97015276D01*
X178708646Y-97015276D02*
X178803884Y-96920038D01*
X178803884Y-96920038D02*
X178946741Y-96872419D01*
X178946741Y-96872419D02*
X179041979Y-96872419D01*
X179041979Y-96872419D02*
X179184836Y-96920038D01*
X179184836Y-96920038D02*
X179232455Y-96967657D01*
X180232455Y-97777180D02*
X180184836Y-97824800D01*
X180184836Y-97824800D02*
X180041979Y-97872419D01*
X180041979Y-97872419D02*
X179946741Y-97872419D01*
X179946741Y-97872419D02*
X179803884Y-97824800D01*
X179803884Y-97824800D02*
X179708646Y-97729561D01*
X179708646Y-97729561D02*
X179661027Y-97634323D01*
X179661027Y-97634323D02*
X179613408Y-97443847D01*
X179613408Y-97443847D02*
X179613408Y-97300990D01*
X179613408Y-97300990D02*
X179661027Y-97110514D01*
X179661027Y-97110514D02*
X179708646Y-97015276D01*
X179708646Y-97015276D02*
X179803884Y-96920038D01*
X179803884Y-96920038D02*
X179946741Y-96872419D01*
X179946741Y-96872419D02*
X180041979Y-96872419D01*
X180041979Y-96872419D02*
X180184836Y-96920038D01*
X180184836Y-96920038D02*
X180232455Y-96967657D01*
X177994360Y-91872419D02*
X178184836Y-91872419D01*
X178184836Y-91872419D02*
X178280074Y-91920038D01*
X178280074Y-91920038D02*
X178375312Y-92015276D01*
X178375312Y-92015276D02*
X178422931Y-92205752D01*
X178422931Y-92205752D02*
X178422931Y-92539085D01*
X178422931Y-92539085D02*
X178375312Y-92729561D01*
X178375312Y-92729561D02*
X178280074Y-92824800D01*
X178280074Y-92824800D02*
X178184836Y-92872419D01*
X178184836Y-92872419D02*
X177994360Y-92872419D01*
X177994360Y-92872419D02*
X177899122Y-92824800D01*
X177899122Y-92824800D02*
X177803884Y-92729561D01*
X177803884Y-92729561D02*
X177756265Y-92539085D01*
X177756265Y-92539085D02*
X177756265Y-92205752D01*
X177756265Y-92205752D02*
X177803884Y-92015276D01*
X177803884Y-92015276D02*
X177899122Y-91920038D01*
X177899122Y-91920038D02*
X177994360Y-91872419D01*
X178851503Y-91872419D02*
X178851503Y-92681942D01*
X178851503Y-92681942D02*
X178899122Y-92777180D01*
X178899122Y-92777180D02*
X178946741Y-92824800D01*
X178946741Y-92824800D02*
X179041979Y-92872419D01*
X179041979Y-92872419D02*
X179232455Y-92872419D01*
X179232455Y-92872419D02*
X179327693Y-92824800D01*
X179327693Y-92824800D02*
X179375312Y-92777180D01*
X179375312Y-92777180D02*
X179422931Y-92681942D01*
X179422931Y-92681942D02*
X179422931Y-91872419D01*
X179756265Y-91872419D02*
X180327693Y-91872419D01*
X180041979Y-92872419D02*
X180041979Y-91872419D01*
X125089598Y-104872419D02*
X125089598Y-105586704D01*
X125089598Y-105586704D02*
X125041979Y-105729561D01*
X125041979Y-105729561D02*
X124946741Y-105824800D01*
X124946741Y-105824800D02*
X124803884Y-105872419D01*
X124803884Y-105872419D02*
X124708646Y-105872419D01*
X126041979Y-105872419D02*
X125565789Y-105872419D01*
X125565789Y-105872419D02*
X125565789Y-104872419D01*
X126946741Y-105777180D02*
X126899122Y-105824800D01*
X126899122Y-105824800D02*
X126756265Y-105872419D01*
X126756265Y-105872419D02*
X126661027Y-105872419D01*
X126661027Y-105872419D02*
X126518170Y-105824800D01*
X126518170Y-105824800D02*
X126422932Y-105729561D01*
X126422932Y-105729561D02*
X126375313Y-105634323D01*
X126375313Y-105634323D02*
X126327694Y-105443847D01*
X126327694Y-105443847D02*
X126327694Y-105300990D01*
X126327694Y-105300990D02*
X126375313Y-105110514D01*
X126375313Y-105110514D02*
X126422932Y-105015276D01*
X126422932Y-105015276D02*
X126518170Y-104920038D01*
X126518170Y-104920038D02*
X126661027Y-104872419D01*
X126661027Y-104872419D02*
X126756265Y-104872419D01*
X126756265Y-104872419D02*
X126899122Y-104920038D01*
X126899122Y-104920038D02*
X126946741Y-104967657D01*
X127661027Y-104872419D02*
X127661027Y-105586704D01*
X127661027Y-105586704D02*
X127613408Y-105729561D01*
X127613408Y-105729561D02*
X127518170Y-105824800D01*
X127518170Y-105824800D02*
X127375313Y-105872419D01*
X127375313Y-105872419D02*
X127280075Y-105872419D01*
X128613408Y-105872419D02*
X128137218Y-105872419D01*
X128137218Y-105872419D02*
X128137218Y-104872419D01*
X129518170Y-105777180D02*
X129470551Y-105824800D01*
X129470551Y-105824800D02*
X129327694Y-105872419D01*
X129327694Y-105872419D02*
X129232456Y-105872419D01*
X129232456Y-105872419D02*
X129089599Y-105824800D01*
X129089599Y-105824800D02*
X128994361Y-105729561D01*
X128994361Y-105729561D02*
X128946742Y-105634323D01*
X128946742Y-105634323D02*
X128899123Y-105443847D01*
X128899123Y-105443847D02*
X128899123Y-105300990D01*
X128899123Y-105300990D02*
X128946742Y-105110514D01*
X128946742Y-105110514D02*
X128994361Y-105015276D01*
X128994361Y-105015276D02*
X129089599Y-104920038D01*
X129089599Y-104920038D02*
X129232456Y-104872419D01*
X129232456Y-104872419D02*
X129327694Y-104872419D01*
X129327694Y-104872419D02*
X129470551Y-104920038D01*
X129470551Y-104920038D02*
X129518170Y-104967657D01*
X130232456Y-104872419D02*
X130232456Y-105586704D01*
X130232456Y-105586704D02*
X130184837Y-105729561D01*
X130184837Y-105729561D02*
X130089599Y-105824800D01*
X130089599Y-105824800D02*
X129946742Y-105872419D01*
X129946742Y-105872419D02*
X129851504Y-105872419D01*
X131184837Y-105872419D02*
X130708647Y-105872419D01*
X130708647Y-105872419D02*
X130708647Y-104872419D01*
X132089599Y-105777180D02*
X132041980Y-105824800D01*
X132041980Y-105824800D02*
X131899123Y-105872419D01*
X131899123Y-105872419D02*
X131803885Y-105872419D01*
X131803885Y-105872419D02*
X131661028Y-105824800D01*
X131661028Y-105824800D02*
X131565790Y-105729561D01*
X131565790Y-105729561D02*
X131518171Y-105634323D01*
X131518171Y-105634323D02*
X131470552Y-105443847D01*
X131470552Y-105443847D02*
X131470552Y-105300990D01*
X131470552Y-105300990D02*
X131518171Y-105110514D01*
X131518171Y-105110514D02*
X131565790Y-105015276D01*
X131565790Y-105015276D02*
X131661028Y-104920038D01*
X131661028Y-104920038D02*
X131803885Y-104872419D01*
X131803885Y-104872419D02*
X131899123Y-104872419D01*
X131899123Y-104872419D02*
X132041980Y-104920038D01*
X132041980Y-104920038D02*
X132089599Y-104967657D01*
X132803885Y-104872419D02*
X132803885Y-105586704D01*
X132803885Y-105586704D02*
X132756266Y-105729561D01*
X132756266Y-105729561D02*
X132661028Y-105824800D01*
X132661028Y-105824800D02*
X132518171Y-105872419D01*
X132518171Y-105872419D02*
X132422933Y-105872419D01*
X133756266Y-105872419D02*
X133280076Y-105872419D01*
X133280076Y-105872419D02*
X133280076Y-104872419D01*
X134661028Y-105777180D02*
X134613409Y-105824800D01*
X134613409Y-105824800D02*
X134470552Y-105872419D01*
X134470552Y-105872419D02*
X134375314Y-105872419D01*
X134375314Y-105872419D02*
X134232457Y-105824800D01*
X134232457Y-105824800D02*
X134137219Y-105729561D01*
X134137219Y-105729561D02*
X134089600Y-105634323D01*
X134089600Y-105634323D02*
X134041981Y-105443847D01*
X134041981Y-105443847D02*
X134041981Y-105300990D01*
X134041981Y-105300990D02*
X134089600Y-105110514D01*
X134089600Y-105110514D02*
X134137219Y-105015276D01*
X134137219Y-105015276D02*
X134232457Y-104920038D01*
X134232457Y-104920038D02*
X134375314Y-104872419D01*
X134375314Y-104872419D02*
X134470552Y-104872419D01*
X134470552Y-104872419D02*
X134613409Y-104920038D01*
X134613409Y-104920038D02*
X134661028Y-104967657D01*
X123803884Y-92372419D02*
X123803884Y-91372419D01*
X124280074Y-92372419D02*
X124280074Y-91372419D01*
X124280074Y-91372419D02*
X124851502Y-92372419D01*
X124851502Y-92372419D02*
X124851502Y-91372419D01*
X125327693Y-91991466D02*
X126089598Y-91991466D01*
X123803884Y-95372419D02*
X123803884Y-94372419D01*
X124280074Y-95372419D02*
X124280074Y-94372419D01*
X124280074Y-94372419D02*
X124851502Y-95372419D01*
X124851502Y-95372419D02*
X124851502Y-94372419D01*
X125327693Y-94991466D02*
X126089598Y-94991466D01*
X125708645Y-95372419D02*
X125708645Y-94610514D01*
X124375312Y-97872419D02*
X124041979Y-97396228D01*
X123803884Y-97872419D02*
X123803884Y-96872419D01*
X123803884Y-96872419D02*
X124184836Y-96872419D01*
X124184836Y-96872419D02*
X124280074Y-96920038D01*
X124280074Y-96920038D02*
X124327693Y-96967657D01*
X124327693Y-96967657D02*
X124375312Y-97062895D01*
X124375312Y-97062895D02*
X124375312Y-97205752D01*
X124375312Y-97205752D02*
X124327693Y-97300990D01*
X124327693Y-97300990D02*
X124280074Y-97348609D01*
X124280074Y-97348609D02*
X124184836Y-97396228D01*
X124184836Y-97396228D02*
X123803884Y-97396228D01*
X124803884Y-97348609D02*
X125137217Y-97348609D01*
X125280074Y-97872419D02*
X124803884Y-97872419D01*
X124803884Y-97872419D02*
X124803884Y-96872419D01*
X124803884Y-96872419D02*
X125280074Y-96872419D01*
X126041979Y-97348609D02*
X125708646Y-97348609D01*
X125708646Y-97872419D02*
X125708646Y-96872419D01*
X125708646Y-96872419D02*
X126184836Y-96872419D01*
X178327693Y-94420038D02*
X178232455Y-94372419D01*
X178232455Y-94372419D02*
X178089598Y-94372419D01*
X178089598Y-94372419D02*
X177946741Y-94420038D01*
X177946741Y-94420038D02*
X177851503Y-94515276D01*
X177851503Y-94515276D02*
X177803884Y-94610514D01*
X177803884Y-94610514D02*
X177756265Y-94800990D01*
X177756265Y-94800990D02*
X177756265Y-94943847D01*
X177756265Y-94943847D02*
X177803884Y-95134323D01*
X177803884Y-95134323D02*
X177851503Y-95229561D01*
X177851503Y-95229561D02*
X177946741Y-95324800D01*
X177946741Y-95324800D02*
X178089598Y-95372419D01*
X178089598Y-95372419D02*
X178184836Y-95372419D01*
X178184836Y-95372419D02*
X178327693Y-95324800D01*
X178327693Y-95324800D02*
X178375312Y-95277180D01*
X178375312Y-95277180D02*
X178375312Y-94943847D01*
X178375312Y-94943847D02*
X178184836Y-94943847D01*
X178803884Y-95372419D02*
X178803884Y-94372419D01*
X178803884Y-94372419D02*
X179375312Y-95372419D01*
X179375312Y-95372419D02*
X179375312Y-94372419D01*
X179851503Y-95372419D02*
X179851503Y-94372419D01*
X179851503Y-94372419D02*
X180089598Y-94372419D01*
X180089598Y-94372419D02*
X180232455Y-94420038D01*
X180232455Y-94420038D02*
X180327693Y-94515276D01*
X180327693Y-94515276D02*
X180375312Y-94610514D01*
X180375312Y-94610514D02*
X180422931Y-94800990D01*
X180422931Y-94800990D02*
X180422931Y-94943847D01*
X180422931Y-94943847D02*
X180375312Y-95134323D01*
X180375312Y-95134323D02*
X180327693Y-95229561D01*
X180327693Y-95229561D02*
X180232455Y-95324800D01*
X180232455Y-95324800D02*
X180089598Y-95372419D01*
X180089598Y-95372419D02*
X179851503Y-95372419D01*
D11*
X154230237Y-95844318D02*
X154230237Y-94574318D01*
X155560714Y-95723365D02*
X155500238Y-95783842D01*
X155500238Y-95783842D02*
X155318809Y-95844318D01*
X155318809Y-95844318D02*
X155197857Y-95844318D01*
X155197857Y-95844318D02*
X155016428Y-95783842D01*
X155016428Y-95783842D02*
X154895476Y-95662889D01*
X154895476Y-95662889D02*
X154834999Y-95541937D01*
X154834999Y-95541937D02*
X154774523Y-95300032D01*
X154774523Y-95300032D02*
X154774523Y-95118603D01*
X154774523Y-95118603D02*
X154834999Y-94876699D01*
X154834999Y-94876699D02*
X154895476Y-94755746D01*
X154895476Y-94755746D02*
X155016428Y-94634794D01*
X155016428Y-94634794D02*
X155197857Y-94574318D01*
X155197857Y-94574318D02*
X155318809Y-94574318D01*
X155318809Y-94574318D02*
X155500238Y-94634794D01*
X155500238Y-94634794D02*
X155560714Y-94695270D01*
X156770238Y-95844318D02*
X156044523Y-95844318D01*
X156407380Y-95844318D02*
X156407380Y-94574318D01*
X156407380Y-94574318D02*
X156286428Y-94755746D01*
X156286428Y-94755746D02*
X156165476Y-94876699D01*
X156165476Y-94876699D02*
X156044523Y-94937175D01*
D12*
X168858333Y-90009580D02*
X168810714Y-90057200D01*
X168810714Y-90057200D02*
X168667857Y-90104819D01*
X168667857Y-90104819D02*
X168572619Y-90104819D01*
X168572619Y-90104819D02*
X168429762Y-90057200D01*
X168429762Y-90057200D02*
X168334524Y-89961961D01*
X168334524Y-89961961D02*
X168286905Y-89866723D01*
X168286905Y-89866723D02*
X168239286Y-89676247D01*
X168239286Y-89676247D02*
X168239286Y-89533390D01*
X168239286Y-89533390D02*
X168286905Y-89342914D01*
X168286905Y-89342914D02*
X168334524Y-89247676D01*
X168334524Y-89247676D02*
X168429762Y-89152438D01*
X168429762Y-89152438D02*
X168572619Y-89104819D01*
X168572619Y-89104819D02*
X168667857Y-89104819D01*
X168667857Y-89104819D02*
X168810714Y-89152438D01*
X168810714Y-89152438D02*
X168858333Y-89200057D01*
X169763095Y-89104819D02*
X169286905Y-89104819D01*
X169286905Y-89104819D02*
X169239286Y-89581009D01*
X169239286Y-89581009D02*
X169286905Y-89533390D01*
X169286905Y-89533390D02*
X169382143Y-89485771D01*
X169382143Y-89485771D02*
X169620238Y-89485771D01*
X169620238Y-89485771D02*
X169715476Y-89533390D01*
X169715476Y-89533390D02*
X169763095Y-89581009D01*
X169763095Y-89581009D02*
X169810714Y-89676247D01*
X169810714Y-89676247D02*
X169810714Y-89914342D01*
X169810714Y-89914342D02*
X169763095Y-90009580D01*
X169763095Y-90009580D02*
X169715476Y-90057200D01*
X169715476Y-90057200D02*
X169620238Y-90104819D01*
X169620238Y-90104819D02*
X169382143Y-90104819D01*
X169382143Y-90104819D02*
X169286905Y-90057200D01*
X169286905Y-90057200D02*
X169239286Y-90009580D01*
X163808333Y-90009580D02*
X163760714Y-90057200D01*
X163760714Y-90057200D02*
X163617857Y-90104819D01*
X163617857Y-90104819D02*
X163522619Y-90104819D01*
X163522619Y-90104819D02*
X163379762Y-90057200D01*
X163379762Y-90057200D02*
X163284524Y-89961961D01*
X163284524Y-89961961D02*
X163236905Y-89866723D01*
X163236905Y-89866723D02*
X163189286Y-89676247D01*
X163189286Y-89676247D02*
X163189286Y-89533390D01*
X163189286Y-89533390D02*
X163236905Y-89342914D01*
X163236905Y-89342914D02*
X163284524Y-89247676D01*
X163284524Y-89247676D02*
X163379762Y-89152438D01*
X163379762Y-89152438D02*
X163522619Y-89104819D01*
X163522619Y-89104819D02*
X163617857Y-89104819D01*
X163617857Y-89104819D02*
X163760714Y-89152438D01*
X163760714Y-89152438D02*
X163808333Y-89200057D01*
X164141667Y-89104819D02*
X164808333Y-89104819D01*
X164808333Y-89104819D02*
X164379762Y-90104819D01*
X169308333Y-94009580D02*
X169260714Y-94057200D01*
X169260714Y-94057200D02*
X169117857Y-94104819D01*
X169117857Y-94104819D02*
X169022619Y-94104819D01*
X169022619Y-94104819D02*
X168879762Y-94057200D01*
X168879762Y-94057200D02*
X168784524Y-93961961D01*
X168784524Y-93961961D02*
X168736905Y-93866723D01*
X168736905Y-93866723D02*
X168689286Y-93676247D01*
X168689286Y-93676247D02*
X168689286Y-93533390D01*
X168689286Y-93533390D02*
X168736905Y-93342914D01*
X168736905Y-93342914D02*
X168784524Y-93247676D01*
X168784524Y-93247676D02*
X168879762Y-93152438D01*
X168879762Y-93152438D02*
X169022619Y-93104819D01*
X169022619Y-93104819D02*
X169117857Y-93104819D01*
X169117857Y-93104819D02*
X169260714Y-93152438D01*
X169260714Y-93152438D02*
X169308333Y-93200057D01*
X170165476Y-93438152D02*
X170165476Y-94104819D01*
X169927381Y-93057200D02*
X169689286Y-93771485D01*
X169689286Y-93771485D02*
X170308333Y-93771485D01*
X155209580Y-86691666D02*
X155257200Y-86739285D01*
X155257200Y-86739285D02*
X155304819Y-86882142D01*
X155304819Y-86882142D02*
X155304819Y-86977380D01*
X155304819Y-86977380D02*
X155257200Y-87120237D01*
X155257200Y-87120237D02*
X155161961Y-87215475D01*
X155161961Y-87215475D02*
X155066723Y-87263094D01*
X155066723Y-87263094D02*
X154876247Y-87310713D01*
X154876247Y-87310713D02*
X154733390Y-87310713D01*
X154733390Y-87310713D02*
X154542914Y-87263094D01*
X154542914Y-87263094D02*
X154447676Y-87215475D01*
X154447676Y-87215475D02*
X154352438Y-87120237D01*
X154352438Y-87120237D02*
X154304819Y-86977380D01*
X154304819Y-86977380D02*
X154304819Y-86882142D01*
X154304819Y-86882142D02*
X154352438Y-86739285D01*
X154352438Y-86739285D02*
X154400057Y-86691666D01*
X154304819Y-86358332D02*
X154304819Y-85739285D01*
X154304819Y-85739285D02*
X154685771Y-86072618D01*
X154685771Y-86072618D02*
X154685771Y-85929761D01*
X154685771Y-85929761D02*
X154733390Y-85834523D01*
X154733390Y-85834523D02*
X154781009Y-85786904D01*
X154781009Y-85786904D02*
X154876247Y-85739285D01*
X154876247Y-85739285D02*
X155114342Y-85739285D01*
X155114342Y-85739285D02*
X155209580Y-85786904D01*
X155209580Y-85786904D02*
X155257200Y-85834523D01*
X155257200Y-85834523D02*
X155304819Y-85929761D01*
X155304819Y-85929761D02*
X155304819Y-86215475D01*
X155304819Y-86215475D02*
X155257200Y-86310713D01*
X155257200Y-86310713D02*
X155209580Y-86358332D01*
X158304819Y-103079166D02*
X157828628Y-103412499D01*
X158304819Y-103650594D02*
X157304819Y-103650594D01*
X157304819Y-103650594D02*
X157304819Y-103269642D01*
X157304819Y-103269642D02*
X157352438Y-103174404D01*
X157352438Y-103174404D02*
X157400057Y-103126785D01*
X157400057Y-103126785D02*
X157495295Y-103079166D01*
X157495295Y-103079166D02*
X157638152Y-103079166D01*
X157638152Y-103079166D02*
X157733390Y-103126785D01*
X157733390Y-103126785D02*
X157781009Y-103174404D01*
X157781009Y-103174404D02*
X157828628Y-103269642D01*
X157828628Y-103269642D02*
X157828628Y-103650594D01*
X157638152Y-102222023D02*
X158304819Y-102222023D01*
X157257200Y-102460118D02*
X157971485Y-102698213D01*
X157971485Y-102698213D02*
X157971485Y-102079166D01*
X156509580Y-86641666D02*
X156557200Y-86689285D01*
X156557200Y-86689285D02*
X156604819Y-86832142D01*
X156604819Y-86832142D02*
X156604819Y-86927380D01*
X156604819Y-86927380D02*
X156557200Y-87070237D01*
X156557200Y-87070237D02*
X156461961Y-87165475D01*
X156461961Y-87165475D02*
X156366723Y-87213094D01*
X156366723Y-87213094D02*
X156176247Y-87260713D01*
X156176247Y-87260713D02*
X156033390Y-87260713D01*
X156033390Y-87260713D02*
X155842914Y-87213094D01*
X155842914Y-87213094D02*
X155747676Y-87165475D01*
X155747676Y-87165475D02*
X155652438Y-87070237D01*
X155652438Y-87070237D02*
X155604819Y-86927380D01*
X155604819Y-86927380D02*
X155604819Y-86832142D01*
X155604819Y-86832142D02*
X155652438Y-86689285D01*
X155652438Y-86689285D02*
X155700057Y-86641666D01*
X155700057Y-86260713D02*
X155652438Y-86213094D01*
X155652438Y-86213094D02*
X155604819Y-86117856D01*
X155604819Y-86117856D02*
X155604819Y-85879761D01*
X155604819Y-85879761D02*
X155652438Y-85784523D01*
X155652438Y-85784523D02*
X155700057Y-85736904D01*
X155700057Y-85736904D02*
X155795295Y-85689285D01*
X155795295Y-85689285D02*
X155890533Y-85689285D01*
X155890533Y-85689285D02*
X156033390Y-85736904D01*
X156033390Y-85736904D02*
X156604819Y-86308332D01*
X156604819Y-86308332D02*
X156604819Y-85689285D01*
X160804819Y-86579166D02*
X160328628Y-86912499D01*
X160804819Y-87150594D02*
X159804819Y-87150594D01*
X159804819Y-87150594D02*
X159804819Y-86769642D01*
X159804819Y-86769642D02*
X159852438Y-86674404D01*
X159852438Y-86674404D02*
X159900057Y-86626785D01*
X159900057Y-86626785D02*
X159995295Y-86579166D01*
X159995295Y-86579166D02*
X160138152Y-86579166D01*
X160138152Y-86579166D02*
X160233390Y-86626785D01*
X160233390Y-86626785D02*
X160281009Y-86674404D01*
X160281009Y-86674404D02*
X160328628Y-86769642D01*
X160328628Y-86769642D02*
X160328628Y-87150594D01*
X159900057Y-86198213D02*
X159852438Y-86150594D01*
X159852438Y-86150594D02*
X159804819Y-86055356D01*
X159804819Y-86055356D02*
X159804819Y-85817261D01*
X159804819Y-85817261D02*
X159852438Y-85722023D01*
X159852438Y-85722023D02*
X159900057Y-85674404D01*
X159900057Y-85674404D02*
X159995295Y-85626785D01*
X159995295Y-85626785D02*
X160090533Y-85626785D01*
X160090533Y-85626785D02*
X160233390Y-85674404D01*
X160233390Y-85674404D02*
X160804819Y-86245832D01*
X160804819Y-86245832D02*
X160804819Y-85626785D01*
X138245833Y-87454819D02*
X137912500Y-86978628D01*
X137674405Y-87454819D02*
X137674405Y-86454819D01*
X137674405Y-86454819D02*
X138055357Y-86454819D01*
X138055357Y-86454819D02*
X138150595Y-86502438D01*
X138150595Y-86502438D02*
X138198214Y-86550057D01*
X138198214Y-86550057D02*
X138245833Y-86645295D01*
X138245833Y-86645295D02*
X138245833Y-86788152D01*
X138245833Y-86788152D02*
X138198214Y-86883390D01*
X138198214Y-86883390D02*
X138150595Y-86931009D01*
X138150595Y-86931009D02*
X138055357Y-86978628D01*
X138055357Y-86978628D02*
X137674405Y-86978628D01*
X138817262Y-86883390D02*
X138722024Y-86835771D01*
X138722024Y-86835771D02*
X138674405Y-86788152D01*
X138674405Y-86788152D02*
X138626786Y-86692914D01*
X138626786Y-86692914D02*
X138626786Y-86645295D01*
X138626786Y-86645295D02*
X138674405Y-86550057D01*
X138674405Y-86550057D02*
X138722024Y-86502438D01*
X138722024Y-86502438D02*
X138817262Y-86454819D01*
X138817262Y-86454819D02*
X139007738Y-86454819D01*
X139007738Y-86454819D02*
X139102976Y-86502438D01*
X139102976Y-86502438D02*
X139150595Y-86550057D01*
X139150595Y-86550057D02*
X139198214Y-86645295D01*
X139198214Y-86645295D02*
X139198214Y-86692914D01*
X139198214Y-86692914D02*
X139150595Y-86788152D01*
X139150595Y-86788152D02*
X139102976Y-86835771D01*
X139102976Y-86835771D02*
X139007738Y-86883390D01*
X139007738Y-86883390D02*
X138817262Y-86883390D01*
X138817262Y-86883390D02*
X138722024Y-86931009D01*
X138722024Y-86931009D02*
X138674405Y-86978628D01*
X138674405Y-86978628D02*
X138626786Y-87073866D01*
X138626786Y-87073866D02*
X138626786Y-87264342D01*
X138626786Y-87264342D02*
X138674405Y-87359580D01*
X138674405Y-87359580D02*
X138722024Y-87407200D01*
X138722024Y-87407200D02*
X138817262Y-87454819D01*
X138817262Y-87454819D02*
X139007738Y-87454819D01*
X139007738Y-87454819D02*
X139102976Y-87407200D01*
X139102976Y-87407200D02*
X139150595Y-87359580D01*
X139150595Y-87359580D02*
X139198214Y-87264342D01*
X139198214Y-87264342D02*
X139198214Y-87073866D01*
X139198214Y-87073866D02*
X139150595Y-86978628D01*
X139150595Y-86978628D02*
X139102976Y-86931009D01*
X139102976Y-86931009D02*
X139007738Y-86883390D01*
X175166666Y-98864819D02*
X175166666Y-99579104D01*
X175166666Y-99579104D02*
X175119047Y-99721961D01*
X175119047Y-99721961D02*
X175023809Y-99817200D01*
X175023809Y-99817200D02*
X174880952Y-99864819D01*
X174880952Y-99864819D02*
X174785714Y-99864819D01*
X175595238Y-98960057D02*
X175642857Y-98912438D01*
X175642857Y-98912438D02*
X175738095Y-98864819D01*
X175738095Y-98864819D02*
X175976190Y-98864819D01*
X175976190Y-98864819D02*
X176071428Y-98912438D01*
X176071428Y-98912438D02*
X176119047Y-98960057D01*
X176119047Y-98960057D02*
X176166666Y-99055295D01*
X176166666Y-99055295D02*
X176166666Y-99150533D01*
X176166666Y-99150533D02*
X176119047Y-99293390D01*
X176119047Y-99293390D02*
X175547619Y-99864819D01*
X175547619Y-99864819D02*
X176166666Y-99864819D01*
X147804819Y-95254166D02*
X147328628Y-95587499D01*
X147804819Y-95825594D02*
X146804819Y-95825594D01*
X146804819Y-95825594D02*
X146804819Y-95444642D01*
X146804819Y-95444642D02*
X146852438Y-95349404D01*
X146852438Y-95349404D02*
X146900057Y-95301785D01*
X146900057Y-95301785D02*
X146995295Y-95254166D01*
X146995295Y-95254166D02*
X147138152Y-95254166D01*
X147138152Y-95254166D02*
X147233390Y-95301785D01*
X147233390Y-95301785D02*
X147281009Y-95349404D01*
X147281009Y-95349404D02*
X147328628Y-95444642D01*
X147328628Y-95444642D02*
X147328628Y-95825594D01*
X147804819Y-94301785D02*
X147804819Y-94873213D01*
X147804819Y-94587499D02*
X146804819Y-94587499D01*
X146804819Y-94587499D02*
X146947676Y-94682737D01*
X146947676Y-94682737D02*
X147042914Y-94777975D01*
X147042914Y-94777975D02*
X147090533Y-94873213D01*
X143359580Y-94691666D02*
X143407200Y-94739285D01*
X143407200Y-94739285D02*
X143454819Y-94882142D01*
X143454819Y-94882142D02*
X143454819Y-94977380D01*
X143454819Y-94977380D02*
X143407200Y-95120237D01*
X143407200Y-95120237D02*
X143311961Y-95215475D01*
X143311961Y-95215475D02*
X143216723Y-95263094D01*
X143216723Y-95263094D02*
X143026247Y-95310713D01*
X143026247Y-95310713D02*
X142883390Y-95310713D01*
X142883390Y-95310713D02*
X142692914Y-95263094D01*
X142692914Y-95263094D02*
X142597676Y-95215475D01*
X142597676Y-95215475D02*
X142502438Y-95120237D01*
X142502438Y-95120237D02*
X142454819Y-94977380D01*
X142454819Y-94977380D02*
X142454819Y-94882142D01*
X142454819Y-94882142D02*
X142502438Y-94739285D01*
X142502438Y-94739285D02*
X142550057Y-94691666D01*
X143454819Y-93739285D02*
X143454819Y-94310713D01*
X143454819Y-94024999D02*
X142454819Y-94024999D01*
X142454819Y-94024999D02*
X142597676Y-94120237D01*
X142597676Y-94120237D02*
X142692914Y-94215475D01*
X142692914Y-94215475D02*
X142740533Y-94310713D01*
X162745833Y-97804819D02*
X162412500Y-97328628D01*
X162174405Y-97804819D02*
X162174405Y-96804819D01*
X162174405Y-96804819D02*
X162555357Y-96804819D01*
X162555357Y-96804819D02*
X162650595Y-96852438D01*
X162650595Y-96852438D02*
X162698214Y-96900057D01*
X162698214Y-96900057D02*
X162745833Y-96995295D01*
X162745833Y-96995295D02*
X162745833Y-97138152D01*
X162745833Y-97138152D02*
X162698214Y-97233390D01*
X162698214Y-97233390D02*
X162650595Y-97281009D01*
X162650595Y-97281009D02*
X162555357Y-97328628D01*
X162555357Y-97328628D02*
X162174405Y-97328628D01*
X163602976Y-96804819D02*
X163412500Y-96804819D01*
X163412500Y-96804819D02*
X163317262Y-96852438D01*
X163317262Y-96852438D02*
X163269643Y-96900057D01*
X163269643Y-96900057D02*
X163174405Y-97042914D01*
X163174405Y-97042914D02*
X163126786Y-97233390D01*
X163126786Y-97233390D02*
X163126786Y-97614342D01*
X163126786Y-97614342D02*
X163174405Y-97709580D01*
X163174405Y-97709580D02*
X163222024Y-97757200D01*
X163222024Y-97757200D02*
X163317262Y-97804819D01*
X163317262Y-97804819D02*
X163507738Y-97804819D01*
X163507738Y-97804819D02*
X163602976Y-97757200D01*
X163602976Y-97757200D02*
X163650595Y-97709580D01*
X163650595Y-97709580D02*
X163698214Y-97614342D01*
X163698214Y-97614342D02*
X163698214Y-97376247D01*
X163698214Y-97376247D02*
X163650595Y-97281009D01*
X163650595Y-97281009D02*
X163602976Y-97233390D01*
X163602976Y-97233390D02*
X163507738Y-97185771D01*
X163507738Y-97185771D02*
X163317262Y-97185771D01*
X163317262Y-97185771D02*
X163222024Y-97233390D01*
X163222024Y-97233390D02*
X163174405Y-97281009D01*
X163174405Y-97281009D02*
X163126786Y-97376247D01*
X144808333Y-88509580D02*
X144760714Y-88557200D01*
X144760714Y-88557200D02*
X144617857Y-88604819D01*
X144617857Y-88604819D02*
X144522619Y-88604819D01*
X144522619Y-88604819D02*
X144379762Y-88557200D01*
X144379762Y-88557200D02*
X144284524Y-88461961D01*
X144284524Y-88461961D02*
X144236905Y-88366723D01*
X144236905Y-88366723D02*
X144189286Y-88176247D01*
X144189286Y-88176247D02*
X144189286Y-88033390D01*
X144189286Y-88033390D02*
X144236905Y-87842914D01*
X144236905Y-87842914D02*
X144284524Y-87747676D01*
X144284524Y-87747676D02*
X144379762Y-87652438D01*
X144379762Y-87652438D02*
X144522619Y-87604819D01*
X144522619Y-87604819D02*
X144617857Y-87604819D01*
X144617857Y-87604819D02*
X144760714Y-87652438D01*
X144760714Y-87652438D02*
X144808333Y-87700057D01*
X145284524Y-88604819D02*
X145475000Y-88604819D01*
X145475000Y-88604819D02*
X145570238Y-88557200D01*
X145570238Y-88557200D02*
X145617857Y-88509580D01*
X145617857Y-88509580D02*
X145713095Y-88366723D01*
X145713095Y-88366723D02*
X145760714Y-88176247D01*
X145760714Y-88176247D02*
X145760714Y-87795295D01*
X145760714Y-87795295D02*
X145713095Y-87700057D01*
X145713095Y-87700057D02*
X145665476Y-87652438D01*
X145665476Y-87652438D02*
X145570238Y-87604819D01*
X145570238Y-87604819D02*
X145379762Y-87604819D01*
X145379762Y-87604819D02*
X145284524Y-87652438D01*
X145284524Y-87652438D02*
X145236905Y-87700057D01*
X145236905Y-87700057D02*
X145189286Y-87795295D01*
X145189286Y-87795295D02*
X145189286Y-88033390D01*
X145189286Y-88033390D02*
X145236905Y-88128628D01*
X145236905Y-88128628D02*
X145284524Y-88176247D01*
X145284524Y-88176247D02*
X145379762Y-88223866D01*
X145379762Y-88223866D02*
X145570238Y-88223866D01*
X145570238Y-88223866D02*
X145665476Y-88176247D01*
X145665476Y-88176247D02*
X145713095Y-88128628D01*
X145713095Y-88128628D02*
X145760714Y-88033390D01*
X140804819Y-97579166D02*
X140328628Y-97912499D01*
X140804819Y-98150594D02*
X139804819Y-98150594D01*
X139804819Y-98150594D02*
X139804819Y-97769642D01*
X139804819Y-97769642D02*
X139852438Y-97674404D01*
X139852438Y-97674404D02*
X139900057Y-97626785D01*
X139900057Y-97626785D02*
X139995295Y-97579166D01*
X139995295Y-97579166D02*
X140138152Y-97579166D01*
X140138152Y-97579166D02*
X140233390Y-97626785D01*
X140233390Y-97626785D02*
X140281009Y-97674404D01*
X140281009Y-97674404D02*
X140328628Y-97769642D01*
X140328628Y-97769642D02*
X140328628Y-98150594D01*
X139804819Y-97245832D02*
X139804819Y-96579166D01*
X139804819Y-96579166D02*
X140804819Y-97007737D01*
X133709580Y-93641666D02*
X133757200Y-93689285D01*
X133757200Y-93689285D02*
X133804819Y-93832142D01*
X133804819Y-93832142D02*
X133804819Y-93927380D01*
X133804819Y-93927380D02*
X133757200Y-94070237D01*
X133757200Y-94070237D02*
X133661961Y-94165475D01*
X133661961Y-94165475D02*
X133566723Y-94213094D01*
X133566723Y-94213094D02*
X133376247Y-94260713D01*
X133376247Y-94260713D02*
X133233390Y-94260713D01*
X133233390Y-94260713D02*
X133042914Y-94213094D01*
X133042914Y-94213094D02*
X132947676Y-94165475D01*
X132947676Y-94165475D02*
X132852438Y-94070237D01*
X132852438Y-94070237D02*
X132804819Y-93927380D01*
X132804819Y-93927380D02*
X132804819Y-93832142D01*
X132804819Y-93832142D02*
X132852438Y-93689285D01*
X132852438Y-93689285D02*
X132900057Y-93641666D01*
X133233390Y-93070237D02*
X133185771Y-93165475D01*
X133185771Y-93165475D02*
X133138152Y-93213094D01*
X133138152Y-93213094D02*
X133042914Y-93260713D01*
X133042914Y-93260713D02*
X132995295Y-93260713D01*
X132995295Y-93260713D02*
X132900057Y-93213094D01*
X132900057Y-93213094D02*
X132852438Y-93165475D01*
X132852438Y-93165475D02*
X132804819Y-93070237D01*
X132804819Y-93070237D02*
X132804819Y-92879761D01*
X132804819Y-92879761D02*
X132852438Y-92784523D01*
X132852438Y-92784523D02*
X132900057Y-92736904D01*
X132900057Y-92736904D02*
X132995295Y-92689285D01*
X132995295Y-92689285D02*
X133042914Y-92689285D01*
X133042914Y-92689285D02*
X133138152Y-92736904D01*
X133138152Y-92736904D02*
X133185771Y-92784523D01*
X133185771Y-92784523D02*
X133233390Y-92879761D01*
X133233390Y-92879761D02*
X133233390Y-93070237D01*
X133233390Y-93070237D02*
X133281009Y-93165475D01*
X133281009Y-93165475D02*
X133328628Y-93213094D01*
X133328628Y-93213094D02*
X133423866Y-93260713D01*
X133423866Y-93260713D02*
X133614342Y-93260713D01*
X133614342Y-93260713D02*
X133709580Y-93213094D01*
X133709580Y-93213094D02*
X133757200Y-93165475D01*
X133757200Y-93165475D02*
X133804819Y-93070237D01*
X133804819Y-93070237D02*
X133804819Y-92879761D01*
X133804819Y-92879761D02*
X133757200Y-92784523D01*
X133757200Y-92784523D02*
X133709580Y-92736904D01*
X133709580Y-92736904D02*
X133614342Y-92689285D01*
X133614342Y-92689285D02*
X133423866Y-92689285D01*
X133423866Y-92689285D02*
X133328628Y-92736904D01*
X133328628Y-92736904D02*
X133281009Y-92784523D01*
X133281009Y-92784523D02*
X133233390Y-92879761D01*
X168833333Y-97954819D02*
X168500000Y-97478628D01*
X168261905Y-97954819D02*
X168261905Y-96954819D01*
X168261905Y-96954819D02*
X168642857Y-96954819D01*
X168642857Y-96954819D02*
X168738095Y-97002438D01*
X168738095Y-97002438D02*
X168785714Y-97050057D01*
X168785714Y-97050057D02*
X168833333Y-97145295D01*
X168833333Y-97145295D02*
X168833333Y-97288152D01*
X168833333Y-97288152D02*
X168785714Y-97383390D01*
X168785714Y-97383390D02*
X168738095Y-97431009D01*
X168738095Y-97431009D02*
X168642857Y-97478628D01*
X168642857Y-97478628D02*
X168261905Y-97478628D01*
X169738095Y-96954819D02*
X169261905Y-96954819D01*
X169261905Y-96954819D02*
X169214286Y-97431009D01*
X169214286Y-97431009D02*
X169261905Y-97383390D01*
X169261905Y-97383390D02*
X169357143Y-97335771D01*
X169357143Y-97335771D02*
X169595238Y-97335771D01*
X169595238Y-97335771D02*
X169690476Y-97383390D01*
X169690476Y-97383390D02*
X169738095Y-97431009D01*
X169738095Y-97431009D02*
X169785714Y-97526247D01*
X169785714Y-97526247D02*
X169785714Y-97764342D01*
X169785714Y-97764342D02*
X169738095Y-97859580D01*
X169738095Y-97859580D02*
X169690476Y-97907200D01*
X169690476Y-97907200D02*
X169595238Y-97954819D01*
X169595238Y-97954819D02*
X169357143Y-97954819D01*
X169357143Y-97954819D02*
X169261905Y-97907200D01*
X169261905Y-97907200D02*
X169214286Y-97859580D01*
X149745833Y-86804819D02*
X149412500Y-86328628D01*
X149174405Y-86804819D02*
X149174405Y-85804819D01*
X149174405Y-85804819D02*
X149555357Y-85804819D01*
X149555357Y-85804819D02*
X149650595Y-85852438D01*
X149650595Y-85852438D02*
X149698214Y-85900057D01*
X149698214Y-85900057D02*
X149745833Y-85995295D01*
X149745833Y-85995295D02*
X149745833Y-86138152D01*
X149745833Y-86138152D02*
X149698214Y-86233390D01*
X149698214Y-86233390D02*
X149650595Y-86281009D01*
X149650595Y-86281009D02*
X149555357Y-86328628D01*
X149555357Y-86328628D02*
X149174405Y-86328628D01*
X150079167Y-85804819D02*
X150698214Y-85804819D01*
X150698214Y-85804819D02*
X150364881Y-86185771D01*
X150364881Y-86185771D02*
X150507738Y-86185771D01*
X150507738Y-86185771D02*
X150602976Y-86233390D01*
X150602976Y-86233390D02*
X150650595Y-86281009D01*
X150650595Y-86281009D02*
X150698214Y-86376247D01*
X150698214Y-86376247D02*
X150698214Y-86614342D01*
X150698214Y-86614342D02*
X150650595Y-86709580D01*
X150650595Y-86709580D02*
X150602976Y-86757200D01*
X150602976Y-86757200D02*
X150507738Y-86804819D01*
X150507738Y-86804819D02*
X150222024Y-86804819D01*
X150222024Y-86804819D02*
X150126786Y-86757200D01*
X150126786Y-86757200D02*
X150079167Y-86709580D01*
X164209580Y-103141666D02*
X164257200Y-103189285D01*
X164257200Y-103189285D02*
X164304819Y-103332142D01*
X164304819Y-103332142D02*
X164304819Y-103427380D01*
X164304819Y-103427380D02*
X164257200Y-103570237D01*
X164257200Y-103570237D02*
X164161961Y-103665475D01*
X164161961Y-103665475D02*
X164066723Y-103713094D01*
X164066723Y-103713094D02*
X163876247Y-103760713D01*
X163876247Y-103760713D02*
X163733390Y-103760713D01*
X163733390Y-103760713D02*
X163542914Y-103713094D01*
X163542914Y-103713094D02*
X163447676Y-103665475D01*
X163447676Y-103665475D02*
X163352438Y-103570237D01*
X163352438Y-103570237D02*
X163304819Y-103427380D01*
X163304819Y-103427380D02*
X163304819Y-103332142D01*
X163304819Y-103332142D02*
X163352438Y-103189285D01*
X163352438Y-103189285D02*
X163400057Y-103141666D01*
X163304819Y-102284523D02*
X163304819Y-102474999D01*
X163304819Y-102474999D02*
X163352438Y-102570237D01*
X163352438Y-102570237D02*
X163400057Y-102617856D01*
X163400057Y-102617856D02*
X163542914Y-102713094D01*
X163542914Y-102713094D02*
X163733390Y-102760713D01*
X163733390Y-102760713D02*
X164114342Y-102760713D01*
X164114342Y-102760713D02*
X164209580Y-102713094D01*
X164209580Y-102713094D02*
X164257200Y-102665475D01*
X164257200Y-102665475D02*
X164304819Y-102570237D01*
X164304819Y-102570237D02*
X164304819Y-102379761D01*
X164304819Y-102379761D02*
X164257200Y-102284523D01*
X164257200Y-102284523D02*
X164209580Y-102236904D01*
X164209580Y-102236904D02*
X164114342Y-102189285D01*
X164114342Y-102189285D02*
X163876247Y-102189285D01*
X163876247Y-102189285D02*
X163781009Y-102236904D01*
X163781009Y-102236904D02*
X163733390Y-102284523D01*
X163733390Y-102284523D02*
X163685771Y-102379761D01*
X163685771Y-102379761D02*
X163685771Y-102570237D01*
X163685771Y-102570237D02*
X163733390Y-102665475D01*
X163733390Y-102665475D02*
X163781009Y-102713094D01*
X163781009Y-102713094D02*
X163876247Y-102760713D01*
D11*
X136971237Y-93169318D02*
X136971237Y-91899318D01*
X138301714Y-93048365D02*
X138241238Y-93108842D01*
X138241238Y-93108842D02*
X138059809Y-93169318D01*
X138059809Y-93169318D02*
X137938857Y-93169318D01*
X137938857Y-93169318D02*
X137757428Y-93108842D01*
X137757428Y-93108842D02*
X137636476Y-92987889D01*
X137636476Y-92987889D02*
X137575999Y-92866937D01*
X137575999Y-92866937D02*
X137515523Y-92625032D01*
X137515523Y-92625032D02*
X137515523Y-92443603D01*
X137515523Y-92443603D02*
X137575999Y-92201699D01*
X137575999Y-92201699D02*
X137636476Y-92080746D01*
X137636476Y-92080746D02*
X137757428Y-91959794D01*
X137757428Y-91959794D02*
X137938857Y-91899318D01*
X137938857Y-91899318D02*
X138059809Y-91899318D01*
X138059809Y-91899318D02*
X138241238Y-91959794D01*
X138241238Y-91959794D02*
X138301714Y-92020270D01*
X138785523Y-92020270D02*
X138845999Y-91959794D01*
X138845999Y-91959794D02*
X138966952Y-91899318D01*
X138966952Y-91899318D02*
X139269333Y-91899318D01*
X139269333Y-91899318D02*
X139390285Y-91959794D01*
X139390285Y-91959794D02*
X139450761Y-92020270D01*
X139450761Y-92020270D02*
X139511238Y-92141222D01*
X139511238Y-92141222D02*
X139511238Y-92262175D01*
X139511238Y-92262175D02*
X139450761Y-92443603D01*
X139450761Y-92443603D02*
X138725047Y-93169318D01*
X138725047Y-93169318D02*
X139511238Y-93169318D01*
D12*
X127666666Y-89584819D02*
X127666666Y-90299104D01*
X127666666Y-90299104D02*
X127619047Y-90441961D01*
X127619047Y-90441961D02*
X127523809Y-90537200D01*
X127523809Y-90537200D02*
X127380952Y-90584819D01*
X127380952Y-90584819D02*
X127285714Y-90584819D01*
X128666666Y-90584819D02*
X128095238Y-90584819D01*
X128380952Y-90584819D02*
X128380952Y-89584819D01*
X128380952Y-89584819D02*
X128285714Y-89727676D01*
X128285714Y-89727676D02*
X128190476Y-89822914D01*
X128190476Y-89822914D02*
X128095238Y-89870533D01*
D13*
X150935000Y-90190000D02*
X158770000Y-90190000D01*
X152170000Y-100350000D02*
X158770000Y-100350000D01*
D14*
X168313748Y-90590000D02*
X169736252Y-90590000D01*
X168313748Y-92410000D02*
X169736252Y-92410000D01*
X163263748Y-90590000D02*
X164686252Y-90590000D01*
X163263748Y-92410000D02*
X164686252Y-92410000D01*
X168763748Y-94590000D02*
X170186252Y-94590000D01*
X168763748Y-96410000D02*
X170186252Y-96410000D01*
X152090000Y-85813748D02*
X152090000Y-87236252D01*
X153910000Y-85813748D02*
X153910000Y-87236252D01*
X158765000Y-103139564D02*
X158765000Y-102685436D01*
X160235000Y-103139564D02*
X160235000Y-102685436D01*
X157090000Y-87186252D02*
X157090000Y-85763748D01*
X158910000Y-87186252D02*
X158910000Y-85763748D01*
X161265000Y-86639564D02*
X161265000Y-86185436D01*
X162735000Y-86639564D02*
X162735000Y-86185436D01*
X138639564Y-87765000D02*
X138185436Y-87765000D01*
X138639564Y-89235000D02*
X138185436Y-89235000D01*
X174170000Y-95810000D02*
X174170000Y-90670000D01*
X176830000Y-90670000D02*
X174170000Y-90670000D01*
X176830000Y-95810000D02*
X174170000Y-95810000D01*
X176830000Y-95810000D02*
X176830000Y-90670000D01*
X176830000Y-97080000D02*
X176830000Y-98410000D01*
X176830000Y-98410000D02*
X175500000Y-98410000D01*
X148265000Y-95314564D02*
X148265000Y-94860436D01*
X149735000Y-95314564D02*
X149735000Y-94860436D01*
X144090000Y-93813748D02*
X144090000Y-95236252D01*
X145910000Y-93813748D02*
X145910000Y-95236252D01*
X162685436Y-98265000D02*
X163139564Y-98265000D01*
X162685436Y-99735000D02*
X163139564Y-99735000D01*
X144263748Y-89090000D02*
X145686252Y-89090000D01*
X144263748Y-90910000D02*
X145686252Y-90910000D01*
X141265000Y-97639564D02*
X141265000Y-97185436D01*
X142735000Y-97639564D02*
X142735000Y-97185436D01*
X130590000Y-92763748D02*
X130590000Y-94186252D01*
X132410000Y-92763748D02*
X132410000Y-94186252D01*
X168860436Y-98265000D02*
X169314564Y-98265000D01*
X168860436Y-99735000D02*
X169314564Y-99735000D01*
X149685436Y-87265000D02*
X150139564Y-87265000D01*
X149685436Y-88735000D02*
X150139564Y-88735000D01*
X161090000Y-102263748D02*
X161090000Y-103686252D01*
X162910000Y-102263748D02*
X162910000Y-103686252D01*
D13*
X134736000Y-90015000D02*
X136263000Y-90015000D01*
X136613000Y-90143000D02*
X139809000Y-90143000D01*
X136613000Y-95047000D02*
X136613000Y-90143000D01*
X139809000Y-90143000D02*
X139809000Y-95047000D01*
X139809000Y-95047000D02*
X136613000Y-95047000D01*
D14*
X126670000Y-91130000D02*
X128000000Y-91130000D01*
X126670000Y-92460000D02*
X126670000Y-91130000D01*
X126670000Y-93730000D02*
X126670000Y-98870000D01*
X126670000Y-93730000D02*
X129330000Y-93730000D01*
X126670000Y-98870000D02*
X129330000Y-98870000D01*
X129330000Y-93730000D02*
X129330000Y-98870000D01*
%LPC*%
D15*
X151500000Y-91460000D03*
D16*
X151500000Y-94000000D03*
X151500000Y-96540000D03*
X151500000Y-99080000D03*
X159440000Y-99080000D03*
X159440000Y-96540000D03*
X159440000Y-94000000D03*
X159440000Y-91460000D03*
D17*
X167550000Y-91500000D03*
X170500000Y-91500000D03*
X162500000Y-91500000D03*
X165450000Y-91500000D03*
X168000000Y-95500000D03*
X170950000Y-95500000D03*
D18*
X153000000Y-85050000D03*
X153000000Y-88000000D03*
D19*
X159500000Y-103825000D03*
X159500000Y-102000000D03*
D20*
X158000000Y-87950000D03*
X158000000Y-85000000D03*
D19*
X162000000Y-87325000D03*
X162000000Y-85500000D03*
D21*
X139325000Y-88500000D03*
X137500000Y-88500000D03*
D22*
X175500000Y-97080000D03*
D23*
X175500000Y-94540000D03*
X175500000Y-92000000D03*
D19*
X149000000Y-96000000D03*
X149000000Y-94175000D03*
D18*
X145000000Y-93050000D03*
X145000000Y-96000000D03*
D24*
X162000000Y-99000000D03*
X163825000Y-99000000D03*
D17*
X143500000Y-90000000D03*
X146450000Y-90000000D03*
D19*
X142000000Y-98325000D03*
X142000000Y-96500000D03*
D18*
X131500000Y-92000000D03*
X131500000Y-94950000D03*
D24*
X168175000Y-99000000D03*
X170000000Y-99000000D03*
X149000000Y-88000000D03*
X150825000Y-88000000D03*
D18*
X162000000Y-101500000D03*
X162000000Y-104450000D03*
D25*
X135500000Y-90690000D03*
X135500000Y-91960000D03*
X135500000Y-93230000D03*
X135500000Y-94500000D03*
X140922000Y-94500000D03*
X140922000Y-93230000D03*
X140922000Y-91960000D03*
X140922000Y-90690000D03*
D22*
X128000000Y-92460000D03*
D23*
X128000000Y-95000000D03*
X128000000Y-97540000D03*
%LPD*%
M02*
