%TF.GenerationSoftware,KiCad,Pcbnew,8.0.2*%
%TF.CreationDate,2024-07-10T18:46:51-04:00*%
%TF.ProjectId,EMGs,454d4773-2e6b-4696-9361-645f70636258,rev?*%
%TF.SameCoordinates,Original*%
%TF.FileFunction,Copper,L1,Top*%
%TF.FilePolarity,Positive*%
%FSLAX46Y46*%
G04 Gerber Fmt 4.6, Leading zero omitted, Abs format (unit mm)*
G04 Created by KiCad (PCBNEW 8.0.2) date 2024-07-10 18:46:51*
%MOMM*%
%LPD*%
G01*
G04 APERTURE LIST*
G04 Aperture macros list*
%AMRoundRect*
0 Rectangle with rounded corners*
0 $1 Rounding radius*
0 $2 $3 $4 $5 $6 $7 $8 $9 X,Y pos of 4 corners*
0 Add a 4 corners polygon primitive as box body*
4,1,4,$2,$3,$4,$5,$6,$7,$8,$9,$2,$3,0*
0 Add four circle primitives for the rounded corners*
1,1,$1+$1,$2,$3*
1,1,$1+$1,$4,$5*
1,1,$1+$1,$6,$7*
1,1,$1+$1,$8,$9*
0 Add four rect primitives between the rounded corners*
20,1,$1+$1,$2,$3,$4,$5,0*
20,1,$1+$1,$4,$5,$6,$7,0*
20,1,$1+$1,$6,$7,$8,$9,0*
20,1,$1+$1,$8,$9,$2,$3,0*%
G04 Aperture macros list end*
%TA.AperFunction,ComponentPad*%
%ADD10R,1.130000X1.130000*%
%TD*%
%TA.AperFunction,ComponentPad*%
%ADD11C,1.130000*%
%TD*%
%TA.AperFunction,SMDPad,CuDef*%
%ADD12RoundRect,0.250000X-0.325000X-0.650000X0.325000X-0.650000X0.325000X0.650000X-0.325000X0.650000X0*%
%TD*%
%TA.AperFunction,SMDPad,CuDef*%
%ADD13RoundRect,0.250000X-0.650000X0.325000X-0.650000X-0.325000X0.650000X-0.325000X0.650000X0.325000X0*%
%TD*%
%TA.AperFunction,SMDPad,CuDef*%
%ADD14RoundRect,0.250000X0.450000X-0.262500X0.450000X0.262500X-0.450000X0.262500X-0.450000X-0.262500X0*%
%TD*%
%TA.AperFunction,SMDPad,CuDef*%
%ADD15RoundRect,0.250000X0.650000X-0.325000X0.650000X0.325000X-0.650000X0.325000X-0.650000X-0.325000X0*%
%TD*%
%TA.AperFunction,SMDPad,CuDef*%
%ADD16RoundRect,0.250000X0.262500X0.450000X-0.262500X0.450000X-0.262500X-0.450000X0.262500X-0.450000X0*%
%TD*%
%TA.AperFunction,ComponentPad*%
%ADD17R,1.700000X1.700000*%
%TD*%
%TA.AperFunction,ComponentPad*%
%ADD18O,1.700000X1.700000*%
%TD*%
%TA.AperFunction,SMDPad,CuDef*%
%ADD19RoundRect,0.250000X-0.262500X-0.450000X0.262500X-0.450000X0.262500X0.450000X-0.262500X0.450000X0*%
%TD*%
%TA.AperFunction,SMDPad,CuDef*%
%ADD20R,1.528000X0.650000*%
%TD*%
%TA.AperFunction,ViaPad*%
%ADD21C,0.600000*%
%TD*%
%TA.AperFunction,Conductor*%
%ADD22C,0.200000*%
%TD*%
G04 APERTURE END LIST*
D10*
X151500000Y-91460000D03*
D11*
X151500000Y-94000000D03*
X151500000Y-96540000D03*
X151500000Y-99080000D03*
X159440000Y-99080000D03*
X159440000Y-96540000D03*
X159440000Y-94000000D03*
X159440000Y-91460000D03*
D12*
X167550000Y-91500000D03*
X170500000Y-91500000D03*
X162500000Y-91500000D03*
X165450000Y-91500000D03*
X168000000Y-95500000D03*
X170950000Y-95500000D03*
D13*
X153000000Y-85050000D03*
X153000000Y-88000000D03*
D14*
X159500000Y-103825000D03*
X159500000Y-102000000D03*
D15*
X158000000Y-87950000D03*
X158000000Y-85000000D03*
D14*
X162000000Y-87325000D03*
X162000000Y-85500000D03*
D16*
X139325000Y-88500000D03*
X137500000Y-88500000D03*
D17*
X175500000Y-97080000D03*
D18*
X175500000Y-94540000D03*
X175500000Y-92000000D03*
D14*
X149000000Y-96000000D03*
X149000000Y-94175000D03*
D13*
X145000000Y-93050000D03*
X145000000Y-96000000D03*
D19*
X162000000Y-99000000D03*
X163825000Y-99000000D03*
D12*
X143500000Y-90000000D03*
X146450000Y-90000000D03*
D14*
X142000000Y-98325000D03*
X142000000Y-96500000D03*
D13*
X131500000Y-92000000D03*
X131500000Y-94950000D03*
D19*
X168175000Y-99000000D03*
X170000000Y-99000000D03*
X149000000Y-88000000D03*
X150825000Y-88000000D03*
D13*
X162000000Y-101500000D03*
X162000000Y-104450000D03*
D20*
X135500000Y-90690000D03*
X135500000Y-91960000D03*
X135500000Y-93230000D03*
X135500000Y-94500000D03*
X140922000Y-94500000D03*
X140922000Y-93230000D03*
X140922000Y-91960000D03*
X140922000Y-90690000D03*
D17*
X128000000Y-92460000D03*
D18*
X128000000Y-95000000D03*
X128000000Y-97540000D03*
D21*
X137000000Y-100000000D03*
X135500000Y-95500000D03*
X171500000Y-91500000D03*
X179500000Y-85000000D03*
X165500000Y-93000000D03*
X124500000Y-104000000D03*
X158000000Y-104000000D03*
X146500000Y-88500000D03*
X172000000Y-95500000D03*
X150000000Y-99000000D03*
X124500000Y-85500000D03*
X163500000Y-104500000D03*
X155000000Y-93500000D03*
X166000000Y-86000000D03*
X174000000Y-88500000D03*
X174000000Y-94000000D03*
X179000000Y-105000000D03*
D22*
X130540000Y-92460000D02*
X128000000Y-92460000D01*
X131000000Y-92000000D02*
X130540000Y-92460000D01*
X131500000Y-92000000D02*
X131000000Y-92000000D01*
X131000000Y-95000000D02*
X128000000Y-95000000D01*
X131500000Y-94950000D02*
X131050000Y-94950000D01*
X131050000Y-94950000D02*
X131000000Y-95000000D01*
X141215000Y-97540000D02*
X142000000Y-98325000D01*
X128000000Y-97540000D02*
X141215000Y-97540000D01*
X135460000Y-92000000D02*
X135500000Y-91960000D01*
X131500000Y-92000000D02*
X135460000Y-92000000D01*
X131500000Y-94950000D02*
X133220000Y-93230000D01*
X133220000Y-93230000D02*
X135500000Y-93230000D01*
X170000000Y-99000000D02*
X173580000Y-99000000D01*
X173580000Y-99000000D02*
X175500000Y-97080000D01*
X140922000Y-93230000D02*
X144820000Y-93230000D01*
X144820000Y-93230000D02*
X145000000Y-93050000D01*
X158625000Y-87325000D02*
X158000000Y-87950000D01*
X153000000Y-88000000D02*
X157950000Y-88000000D01*
X157950000Y-88000000D02*
X158000000Y-87950000D01*
X150825000Y-88000000D02*
X153000000Y-88000000D01*
X150825000Y-88000000D02*
X150825000Y-90785000D01*
X150825000Y-90785000D02*
X151500000Y-91460000D01*
X162000000Y-87325000D02*
X171025000Y-87325000D01*
X162000000Y-87325000D02*
X158625000Y-87325000D01*
X171025000Y-87325000D02*
X175500000Y-91800000D01*
X143500000Y-90000000D02*
X143709744Y-90000000D01*
X163700000Y-90300000D02*
X166350000Y-90300000D01*
X141540000Y-91960000D02*
X143500000Y-90000000D01*
X162460000Y-91460000D02*
X162500000Y-91500000D01*
X148000000Y-94872244D02*
X148127756Y-95000000D01*
X162500000Y-91500000D02*
X163700000Y-90300000D01*
X168175000Y-99000000D02*
X163825000Y-99000000D01*
X166350000Y-90300000D02*
X167550000Y-91500000D01*
X167550000Y-91500000D02*
X167550000Y-95050000D01*
X143709744Y-90000000D02*
X148000000Y-94290256D01*
X140922000Y-91960000D02*
X141540000Y-91960000D01*
X168000000Y-98825000D02*
X168175000Y-99000000D01*
X167550000Y-95050000D02*
X168000000Y-95500000D01*
X148127756Y-95000000D02*
X155900000Y-95000000D01*
X168000000Y-95500000D02*
X168000000Y-98825000D01*
X155900000Y-95000000D02*
X159440000Y-91460000D01*
X148000000Y-94290256D02*
X148000000Y-94872244D01*
X159440000Y-91460000D02*
X162460000Y-91460000D01*
X159440000Y-94000000D02*
X159440000Y-96540000D01*
X142000000Y-96500000D02*
X142605000Y-97105000D01*
X150935000Y-97105000D02*
X151500000Y-96540000D01*
X140922000Y-95422000D02*
X142000000Y-96500000D01*
X140922000Y-94500000D02*
X140922000Y-95422000D01*
X142605000Y-97105000D02*
X150935000Y-97105000D01*
X151500000Y-96540000D02*
X159440000Y-96540000D01*
X145000000Y-96000000D02*
X149000000Y-96000000D01*
X153000000Y-85050000D02*
X153950000Y-85050000D01*
X153000000Y-85050000D02*
X151950000Y-85050000D01*
X154000000Y-85000000D02*
X158000000Y-85000000D01*
X151000000Y-93500000D02*
X151500000Y-94000000D01*
X153950000Y-85050000D02*
X154000000Y-85000000D01*
X161500000Y-85000000D02*
X162000000Y-85500000D01*
X158000000Y-85000000D02*
X161500000Y-85000000D01*
X149000000Y-94175000D02*
X149000000Y-93500000D01*
X149000000Y-88000000D02*
X149000000Y-93500000D01*
X151950000Y-85050000D02*
X149000000Y-88000000D01*
X149000000Y-93500000D02*
X151000000Y-93500000D01*
X159500000Y-102000000D02*
X160000000Y-102000000D01*
X160500000Y-101500000D02*
X162000000Y-101500000D01*
X160000000Y-102000000D02*
X160500000Y-101500000D01*
X159440000Y-101940000D02*
X159500000Y-102000000D01*
X159440000Y-99080000D02*
X159440000Y-101940000D01*
X162000000Y-101500000D02*
X162000000Y-99000000D01*
X140922000Y-90097000D02*
X140922000Y-90690000D01*
X139325000Y-88500000D02*
X140922000Y-90097000D01*
X135500000Y-90690000D02*
X137400000Y-88790000D01*
X137400000Y-88790000D02*
X137400000Y-88500000D01*
%TA.AperFunction,Conductor*%
G36*
X151780809Y-84020185D02*
G01*
X151826564Y-84072989D01*
X151836508Y-84142147D01*
X151807483Y-84205703D01*
X151801451Y-84212181D01*
X151757289Y-84256342D01*
X151665184Y-84405668D01*
X151632750Y-84503546D01*
X151592977Y-84560990D01*
X151586997Y-84565095D01*
X151581286Y-84569477D01*
X151525383Y-84625380D01*
X151469480Y-84681284D01*
X151469478Y-84681286D01*
X149387582Y-86763181D01*
X149326259Y-86796666D01*
X149299901Y-86799500D01*
X148687498Y-86799500D01*
X148687480Y-86799501D01*
X148584703Y-86810000D01*
X148584700Y-86810001D01*
X148418168Y-86865185D01*
X148418163Y-86865187D01*
X148268842Y-86957289D01*
X148144789Y-87081342D01*
X148052687Y-87230663D01*
X148052686Y-87230666D01*
X147997501Y-87397203D01*
X147997501Y-87397204D01*
X147997500Y-87397204D01*
X147987000Y-87499983D01*
X147987000Y-88500001D01*
X147987001Y-88500019D01*
X147997500Y-88602796D01*
X147997501Y-88602799D01*
X148018175Y-88665187D01*
X148052686Y-88769334D01*
X148144788Y-88918656D01*
X148268844Y-89042712D01*
X148340596Y-89086968D01*
X148387321Y-89138915D01*
X148399500Y-89192507D01*
X148399500Y-93082199D01*
X148379815Y-93149238D01*
X148327011Y-93194993D01*
X148314507Y-93199903D01*
X148307128Y-93202349D01*
X148230668Y-93227685D01*
X148230663Y-93227687D01*
X148081339Y-93319791D01*
X148067731Y-93333399D01*
X148006406Y-93366881D01*
X147936714Y-93361892D01*
X147892373Y-93333394D01*
X146167170Y-91608191D01*
X146133685Y-91546868D01*
X146138669Y-91477176D01*
X146167170Y-91432829D01*
X146200000Y-91399999D01*
X146700000Y-91399999D01*
X146824972Y-91399999D01*
X146824986Y-91399998D01*
X146927697Y-91389505D01*
X147094119Y-91334358D01*
X147094124Y-91334356D01*
X147243345Y-91242315D01*
X147367315Y-91118345D01*
X147459356Y-90969124D01*
X147459358Y-90969119D01*
X147514505Y-90802697D01*
X147514506Y-90802690D01*
X147524999Y-90699986D01*
X147525000Y-90699973D01*
X147525000Y-90250000D01*
X146700000Y-90250000D01*
X146700000Y-91399999D01*
X146200000Y-91399999D01*
X146200000Y-90250000D01*
X145375001Y-90250000D01*
X145375001Y-90516660D01*
X145355316Y-90583699D01*
X145302512Y-90629454D01*
X145233354Y-90639398D01*
X145169798Y-90610373D01*
X145163320Y-90604341D01*
X144611818Y-90052839D01*
X144578333Y-89991516D01*
X144575499Y-89965158D01*
X144575499Y-89300013D01*
X145375000Y-89300013D01*
X145375000Y-89750000D01*
X146200000Y-89750000D01*
X146700000Y-89750000D01*
X147524999Y-89750000D01*
X147524999Y-89300028D01*
X147524998Y-89300013D01*
X147514505Y-89197302D01*
X147459358Y-89030880D01*
X147459356Y-89030875D01*
X147367315Y-88881654D01*
X147243345Y-88757684D01*
X147094124Y-88665643D01*
X147094119Y-88665641D01*
X146927697Y-88610494D01*
X146927690Y-88610493D01*
X146824986Y-88600000D01*
X146700000Y-88600000D01*
X146700000Y-89750000D01*
X146200000Y-89750000D01*
X146200000Y-88600000D01*
X146075027Y-88600000D01*
X146075012Y-88600001D01*
X145972302Y-88610494D01*
X145805880Y-88665641D01*
X145805875Y-88665643D01*
X145656654Y-88757684D01*
X145532684Y-88881654D01*
X145440643Y-89030875D01*
X145440641Y-89030880D01*
X145385494Y-89197302D01*
X145385493Y-89197309D01*
X145375000Y-89300013D01*
X144575499Y-89300013D01*
X144575499Y-89299998D01*
X144575498Y-89299981D01*
X144564999Y-89197203D01*
X144564998Y-89197200D01*
X144528470Y-89086967D01*
X144509814Y-89030666D01*
X144417712Y-88881344D01*
X144293656Y-88757288D01*
X144144334Y-88665186D01*
X143977797Y-88610001D01*
X143977795Y-88610000D01*
X143875010Y-88599500D01*
X143124998Y-88599500D01*
X143124980Y-88599501D01*
X143022203Y-88610000D01*
X143022200Y-88610001D01*
X142855668Y-88665185D01*
X142855663Y-88665187D01*
X142706342Y-88757289D01*
X142582289Y-88881342D01*
X142490187Y-89030663D01*
X142490185Y-89030668D01*
X142486194Y-89042712D01*
X142435001Y-89197203D01*
X142435001Y-89197204D01*
X142435000Y-89197204D01*
X142424500Y-89299983D01*
X142424500Y-90174901D01*
X142404815Y-90241940D01*
X142388181Y-90262582D01*
X142374431Y-90276332D01*
X142313108Y-90309817D01*
X142243416Y-90304833D01*
X142187483Y-90262961D01*
X142170568Y-90231984D01*
X142129797Y-90122671D01*
X142129793Y-90122664D01*
X142043547Y-90007455D01*
X142043544Y-90007452D01*
X141928335Y-89921206D01*
X141928328Y-89921202D01*
X141793482Y-89870908D01*
X141793483Y-89870908D01*
X141733883Y-89864501D01*
X141733881Y-89864500D01*
X141733873Y-89864500D01*
X141733865Y-89864500D01*
X141552755Y-89864500D01*
X141485716Y-89844815D01*
X141445367Y-89802499D01*
X141402521Y-89728285D01*
X141286385Y-89612149D01*
X141286374Y-89612139D01*
X140374318Y-88700083D01*
X140340833Y-88638760D01*
X140337999Y-88612402D01*
X140337999Y-87999998D01*
X140337998Y-87999981D01*
X140327499Y-87897203D01*
X140327498Y-87897200D01*
X140272314Y-87730666D01*
X140180212Y-87581344D01*
X140056156Y-87457288D01*
X139906834Y-87365186D01*
X139740297Y-87310001D01*
X139740295Y-87310000D01*
X139637510Y-87299500D01*
X139012498Y-87299500D01*
X139012480Y-87299501D01*
X138909703Y-87310000D01*
X138909700Y-87310001D01*
X138743168Y-87365185D01*
X138743163Y-87365187D01*
X138593842Y-87457289D01*
X138500181Y-87550951D01*
X138438858Y-87584436D01*
X138369166Y-87579452D01*
X138324819Y-87550951D01*
X138231157Y-87457289D01*
X138231156Y-87457288D01*
X138081834Y-87365186D01*
X137915297Y-87310001D01*
X137915295Y-87310000D01*
X137812510Y-87299500D01*
X137187498Y-87299500D01*
X137187480Y-87299501D01*
X137084703Y-87310000D01*
X137084700Y-87310001D01*
X136918168Y-87365185D01*
X136918163Y-87365187D01*
X136768842Y-87457289D01*
X136644789Y-87581342D01*
X136552687Y-87730663D01*
X136552686Y-87730666D01*
X136497501Y-87897203D01*
X136497501Y-87897204D01*
X136497500Y-87897204D01*
X136487000Y-87999983D01*
X136487000Y-88802401D01*
X136467315Y-88869440D01*
X136450681Y-88890082D01*
X135512582Y-89828181D01*
X135451259Y-89861666D01*
X135424901Y-89864500D01*
X134688129Y-89864500D01*
X134688123Y-89864501D01*
X134628516Y-89870908D01*
X134493671Y-89921202D01*
X134493664Y-89921206D01*
X134378455Y-90007452D01*
X134378452Y-90007455D01*
X134292206Y-90122664D01*
X134292202Y-90122671D01*
X134241994Y-90257288D01*
X134241909Y-90257517D01*
X134235500Y-90317127D01*
X134235500Y-90317134D01*
X134235500Y-90317135D01*
X134235500Y-91062870D01*
X134235501Y-91062876D01*
X134241908Y-91122483D01*
X134282818Y-91232167D01*
X134287802Y-91301859D01*
X134254317Y-91363182D01*
X134192993Y-91396666D01*
X134166636Y-91399500D01*
X132931058Y-91399500D01*
X132864019Y-91379815D01*
X132825519Y-91340597D01*
X132810534Y-91316302D01*
X132742712Y-91206344D01*
X132618656Y-91082288D01*
X132469334Y-90990186D01*
X132302797Y-90935001D01*
X132302795Y-90935000D01*
X132200010Y-90924500D01*
X130799998Y-90924500D01*
X130799981Y-90924501D01*
X130697203Y-90935000D01*
X130697200Y-90935001D01*
X130530668Y-90990185D01*
X130530663Y-90990187D01*
X130381342Y-91082289D01*
X130257289Y-91206342D01*
X130165187Y-91355663D01*
X130165185Y-91355668D01*
X130157184Y-91379815D01*
X130110001Y-91522203D01*
X130110001Y-91522204D01*
X130110000Y-91522204D01*
X130099500Y-91624983D01*
X130099500Y-91735500D01*
X130079815Y-91802539D01*
X130027011Y-91848294D01*
X129975500Y-91859500D01*
X129474499Y-91859500D01*
X129407460Y-91839815D01*
X129361705Y-91787011D01*
X129350499Y-91735500D01*
X129350499Y-91562129D01*
X129350498Y-91562123D01*
X129350497Y-91562116D01*
X129344091Y-91502517D01*
X129334639Y-91477176D01*
X129293797Y-91367671D01*
X129293793Y-91367664D01*
X129207547Y-91252455D01*
X129207544Y-91252452D01*
X129092335Y-91166206D01*
X129092328Y-91166202D01*
X128957482Y-91115908D01*
X128957483Y-91115908D01*
X128897883Y-91109501D01*
X128897881Y-91109500D01*
X128897873Y-91109500D01*
X128897864Y-91109500D01*
X127102129Y-91109500D01*
X127102123Y-91109501D01*
X127042516Y-91115908D01*
X126907671Y-91166202D01*
X126907664Y-91166206D01*
X126792455Y-91252452D01*
X126792452Y-91252455D01*
X126706206Y-91367664D01*
X126706202Y-91367671D01*
X126655908Y-91502517D01*
X126649501Y-91562116D01*
X126649501Y-91562123D01*
X126649500Y-91562135D01*
X126649500Y-93357870D01*
X126649501Y-93357876D01*
X126655908Y-93417483D01*
X126706202Y-93552328D01*
X126706206Y-93552335D01*
X126792452Y-93667544D01*
X126792455Y-93667547D01*
X126907664Y-93753793D01*
X126907671Y-93753797D01*
X127039081Y-93802810D01*
X127095015Y-93844681D01*
X127119432Y-93910145D01*
X127104580Y-93978418D01*
X127083430Y-94006673D01*
X126961503Y-94128600D01*
X126825965Y-94322169D01*
X126825964Y-94322171D01*
X126726098Y-94536335D01*
X126726094Y-94536344D01*
X126664938Y-94764586D01*
X126664936Y-94764596D01*
X126644341Y-94999999D01*
X126644341Y-95000000D01*
X126664936Y-95235403D01*
X126664938Y-95235413D01*
X126726094Y-95463655D01*
X126726096Y-95463659D01*
X126726097Y-95463663D01*
X126816467Y-95657461D01*
X126825965Y-95677830D01*
X126825967Y-95677834D01*
X126961501Y-95871395D01*
X126961506Y-95871402D01*
X127128597Y-96038493D01*
X127128603Y-96038498D01*
X127314158Y-96168425D01*
X127357783Y-96223002D01*
X127364977Y-96292500D01*
X127333454Y-96354855D01*
X127314158Y-96371575D01*
X127128597Y-96501505D01*
X126961505Y-96668597D01*
X126825965Y-96862169D01*
X126825964Y-96862171D01*
X126726098Y-97076335D01*
X126726094Y-97076344D01*
X126664938Y-97304586D01*
X126664936Y-97304596D01*
X126644341Y-97539999D01*
X126644341Y-97540000D01*
X126664936Y-97775403D01*
X126664938Y-97775413D01*
X126726094Y-98003655D01*
X126726096Y-98003659D01*
X126726097Y-98003663D01*
X126823293Y-98212099D01*
X126825965Y-98217830D01*
X126825967Y-98217834D01*
X126874781Y-98287547D01*
X126961505Y-98411401D01*
X127128599Y-98578495D01*
X127212868Y-98637501D01*
X127322165Y-98714032D01*
X127322167Y-98714033D01*
X127322170Y-98714035D01*
X127536337Y-98813903D01*
X127764592Y-98875063D01*
X127952918Y-98891539D01*
X127999999Y-98895659D01*
X128000000Y-98895659D01*
X128000001Y-98895659D01*
X128039234Y-98892226D01*
X128235408Y-98875063D01*
X128463663Y-98813903D01*
X128677830Y-98714035D01*
X128871401Y-98578495D01*
X129038495Y-98411401D01*
X129174035Y-98217830D01*
X129176707Y-98212097D01*
X129222878Y-98159658D01*
X129289091Y-98140500D01*
X140675500Y-98140500D01*
X140742539Y-98160185D01*
X140788294Y-98212989D01*
X140799500Y-98264500D01*
X140799500Y-98637501D01*
X140799501Y-98637519D01*
X140810000Y-98740296D01*
X140810001Y-98740299D01*
X140853386Y-98871225D01*
X140865186Y-98906834D01*
X140957288Y-99056156D01*
X141081344Y-99180212D01*
X141230666Y-99272314D01*
X141397203Y-99327499D01*
X141499991Y-99338000D01*
X142500008Y-99337999D01*
X142500016Y-99337998D01*
X142500019Y-99337998D01*
X142556302Y-99332248D01*
X142602797Y-99327499D01*
X142769334Y-99272314D01*
X142918656Y-99180212D01*
X143018868Y-99080000D01*
X150429847Y-99080000D01*
X150450409Y-99288774D01*
X150511309Y-99489534D01*
X150589892Y-99636552D01*
X150589893Y-99636552D01*
X151135000Y-99091446D01*
X151135000Y-99128053D01*
X151159874Y-99220885D01*
X151207927Y-99304116D01*
X151275884Y-99372073D01*
X151359115Y-99420126D01*
X151451947Y-99445000D01*
X151488553Y-99445000D01*
X150943445Y-99990106D01*
X151090465Y-100068690D01*
X151291227Y-100129590D01*
X151291223Y-100129590D01*
X151500000Y-100150152D01*
X151708774Y-100129590D01*
X151909532Y-100068690D01*
X152056553Y-99990105D01*
X151511448Y-99445000D01*
X151548053Y-99445000D01*
X151640885Y-99420126D01*
X151724116Y-99372073D01*
X151792073Y-99304116D01*
X151840126Y-99220885D01*
X151865000Y-99128053D01*
X151865000Y-99091447D01*
X152410105Y-99636552D01*
X152488690Y-99489532D01*
X152549590Y-99288774D01*
X152570152Y-99080000D01*
X152549590Y-98871225D01*
X152488690Y-98670465D01*
X152410106Y-98523445D01*
X151865000Y-99068551D01*
X151865000Y-99031947D01*
X151840126Y-98939115D01*
X151792073Y-98855884D01*
X151724116Y-98787927D01*
X151640885Y-98739874D01*
X151548053Y-98715000D01*
X151511448Y-98715000D01*
X152056552Y-98169893D01*
X152056552Y-98169892D01*
X151909534Y-98091309D01*
X151708772Y-98030409D01*
X151708776Y-98030409D01*
X151500000Y-98009847D01*
X151291225Y-98030409D01*
X151090471Y-98091307D01*
X150943446Y-98169893D01*
X151488553Y-98715000D01*
X151451947Y-98715000D01*
X151359115Y-98739874D01*
X151275884Y-98787927D01*
X151207927Y-98855884D01*
X151159874Y-98939115D01*
X151135000Y-99031947D01*
X151135000Y-99068552D01*
X150589893Y-98523446D01*
X150511307Y-98670471D01*
X150450409Y-98871225D01*
X150429847Y-99080000D01*
X143018868Y-99080000D01*
X143042712Y-99056156D01*
X143134814Y-98906834D01*
X143189999Y-98740297D01*
X143200500Y-98637509D01*
X143200499Y-98012492D01*
X143189999Y-97909703D01*
X143176346Y-97868503D01*
X143173945Y-97798676D01*
X143209676Y-97738634D01*
X143272197Y-97707441D01*
X143294053Y-97705500D01*
X150848331Y-97705500D01*
X150848347Y-97705501D01*
X150855943Y-97705501D01*
X151014054Y-97705501D01*
X151014057Y-97705501D01*
X151166785Y-97664577D01*
X151216900Y-97635640D01*
X151216904Y-97635640D01*
X151216904Y-97635639D01*
X151260626Y-97610396D01*
X151328525Y-97593925D01*
X151334774Y-97594381D01*
X151500000Y-97610655D01*
X151708874Y-97590083D01*
X151909722Y-97529156D01*
X152094824Y-97430217D01*
X152257067Y-97297067D01*
X152348353Y-97185834D01*
X152406098Y-97146501D01*
X152444206Y-97140500D01*
X158495794Y-97140500D01*
X158562833Y-97160185D01*
X158591647Y-97185835D01*
X158682932Y-97297067D01*
X158845174Y-97430216D01*
X158845181Y-97430220D01*
X159030276Y-97529155D01*
X159030278Y-97529156D01*
X159231126Y-97590083D01*
X159440000Y-97610655D01*
X159648874Y-97590083D01*
X159849722Y-97529156D01*
X160034824Y-97430217D01*
X160197067Y-97297067D01*
X160330217Y-97134824D01*
X160429156Y-96949722D01*
X160490083Y-96748874D01*
X160510655Y-96540000D01*
X160490083Y-96331126D01*
X160429156Y-96130278D01*
X160352930Y-95987669D01*
X160330220Y-95945181D01*
X160330216Y-95945174D01*
X160197067Y-95782932D01*
X160085835Y-95691646D01*
X160046501Y-95633900D01*
X160040500Y-95595793D01*
X160040500Y-94944205D01*
X160060185Y-94877166D01*
X160085833Y-94848353D01*
X160197067Y-94757067D01*
X160330217Y-94594824D01*
X160429156Y-94409722D01*
X160490083Y-94208874D01*
X160510655Y-94000000D01*
X160490083Y-93791126D01*
X160429156Y-93590278D01*
X160338716Y-93421076D01*
X160330220Y-93405181D01*
X160330216Y-93405174D01*
X160197067Y-93242932D01*
X160034825Y-93109783D01*
X160034818Y-93109779D01*
X159849723Y-93010844D01*
X159648876Y-92949917D01*
X159440000Y-92929345D01*
X159231127Y-92949916D01*
X159085010Y-92994241D01*
X159015143Y-92994864D01*
X158956031Y-92957616D01*
X158926440Y-92894322D01*
X158935765Y-92825077D01*
X158961331Y-92787902D01*
X159196963Y-92552270D01*
X159258284Y-92518787D01*
X159296793Y-92516550D01*
X159440000Y-92530655D01*
X159648874Y-92510083D01*
X159849722Y-92449156D01*
X160034824Y-92350217D01*
X160197067Y-92217067D01*
X160288353Y-92105834D01*
X160346098Y-92066501D01*
X160384206Y-92060500D01*
X161300501Y-92060500D01*
X161367540Y-92080185D01*
X161413295Y-92132989D01*
X161424501Y-92184500D01*
X161424501Y-92200018D01*
X161435000Y-92302796D01*
X161435001Y-92302799D01*
X161490185Y-92469331D01*
X161490187Y-92469336D01*
X161519309Y-92516550D01*
X161582288Y-92618656D01*
X161706344Y-92742712D01*
X161855666Y-92834814D01*
X162022203Y-92889999D01*
X162124991Y-92900500D01*
X162875008Y-92900499D01*
X162875016Y-92900498D01*
X162875019Y-92900498D01*
X162935477Y-92894322D01*
X162977797Y-92889999D01*
X163144334Y-92834814D01*
X163293656Y-92742712D01*
X163417712Y-92618656D01*
X163509814Y-92469334D01*
X163564999Y-92302797D01*
X163575500Y-92200009D01*
X163575500Y-92199986D01*
X164375001Y-92199986D01*
X164385494Y-92302697D01*
X164440641Y-92469119D01*
X164440643Y-92469124D01*
X164532684Y-92618345D01*
X164656654Y-92742315D01*
X164805875Y-92834356D01*
X164805880Y-92834358D01*
X164972302Y-92889505D01*
X164972309Y-92889506D01*
X165075019Y-92899999D01*
X165199999Y-92899999D01*
X165200000Y-92899998D01*
X165200000Y-91750000D01*
X164375001Y-91750000D01*
X164375001Y-92199986D01*
X163575500Y-92199986D01*
X163575499Y-91325096D01*
X163595183Y-91258058D01*
X163611818Y-91237416D01*
X163912416Y-90936819D01*
X163973739Y-90903334D01*
X164000097Y-90900500D01*
X164251000Y-90900500D01*
X164318039Y-90920185D01*
X164363794Y-90972989D01*
X164375000Y-91024500D01*
X164375000Y-91250000D01*
X165576000Y-91250000D01*
X165643039Y-91269685D01*
X165688794Y-91322489D01*
X165700000Y-91374000D01*
X165700000Y-92899999D01*
X165824972Y-92899999D01*
X165824986Y-92899998D01*
X165927697Y-92889505D01*
X166094119Y-92834358D01*
X166094124Y-92834356D01*
X166243345Y-92742315D01*
X166367316Y-92618344D01*
X166367320Y-92618339D01*
X166394167Y-92574813D01*
X166446114Y-92528087D01*
X166515076Y-92516864D01*
X166579159Y-92544707D01*
X166605245Y-92574812D01*
X166632095Y-92618344D01*
X166632288Y-92618656D01*
X166756344Y-92742712D01*
X166890597Y-92825519D01*
X166937321Y-92877465D01*
X166949500Y-92931057D01*
X166949500Y-94633437D01*
X166943206Y-94672441D01*
X166935001Y-94697201D01*
X166924500Y-94799983D01*
X166924500Y-96200001D01*
X166924501Y-96200018D01*
X166935000Y-96302796D01*
X166935001Y-96302799D01*
X166972280Y-96415297D01*
X166990186Y-96469334D01*
X167082288Y-96618656D01*
X167206344Y-96742712D01*
X167340597Y-96825519D01*
X167387321Y-96877465D01*
X167399500Y-96931057D01*
X167399500Y-97950270D01*
X167379815Y-98017309D01*
X167363181Y-98037951D01*
X167319789Y-98081342D01*
X167227687Y-98230663D01*
X167227685Y-98230668D01*
X167210688Y-98281962D01*
X167208838Y-98287547D01*
X167199905Y-98314504D01*
X167160132Y-98371949D01*
X167095616Y-98398772D01*
X167082199Y-98399500D01*
X164917801Y-98399500D01*
X164850762Y-98379815D01*
X164805007Y-98327011D01*
X164800095Y-98314504D01*
X164772314Y-98230666D01*
X164680212Y-98081344D01*
X164556156Y-97957288D01*
X164406834Y-97865186D01*
X164240297Y-97810001D01*
X164240295Y-97810000D01*
X164137510Y-97799500D01*
X163512498Y-97799500D01*
X163512480Y-97799501D01*
X163409703Y-97810000D01*
X163409700Y-97810001D01*
X163243168Y-97865185D01*
X163243163Y-97865187D01*
X163093842Y-97957289D01*
X163000181Y-98050951D01*
X162938858Y-98084436D01*
X162869166Y-98079452D01*
X162824819Y-98050951D01*
X162731157Y-97957289D01*
X162731156Y-97957288D01*
X162581834Y-97865186D01*
X162415297Y-97810001D01*
X162415295Y-97810000D01*
X162312510Y-97799500D01*
X161687498Y-97799500D01*
X161687480Y-97799501D01*
X161584703Y-97810000D01*
X161584700Y-97810001D01*
X161418168Y-97865185D01*
X161418163Y-97865187D01*
X161268842Y-97957289D01*
X161144789Y-98081342D01*
X161052687Y-98230663D01*
X161052685Y-98230668D01*
X161033838Y-98287544D01*
X160997501Y-98397203D01*
X160997501Y-98397204D01*
X160997500Y-98397204D01*
X160987000Y-98499983D01*
X160987000Y-99500001D01*
X160987001Y-99500019D01*
X160997500Y-99602796D01*
X160997501Y-99602799D01*
X161052685Y-99769331D01*
X161052686Y-99769334D01*
X161144788Y-99918656D01*
X161268844Y-100042712D01*
X161340596Y-100086968D01*
X161387321Y-100138915D01*
X161399500Y-100192507D01*
X161399500Y-100302357D01*
X161379815Y-100369396D01*
X161327011Y-100415151D01*
X161288102Y-100425715D01*
X161197202Y-100435001D01*
X161197200Y-100435001D01*
X161030668Y-100490185D01*
X161030663Y-100490187D01*
X160881342Y-100582289D01*
X160757287Y-100706344D01*
X160674482Y-100840595D01*
X160622534Y-100887320D01*
X160568943Y-100899499D01*
X160420943Y-100899499D01*
X160319125Y-100926781D01*
X160268215Y-100940423D01*
X160226499Y-100964508D01*
X160158598Y-100980979D01*
X160092572Y-100958127D01*
X160049382Y-100903205D01*
X160040500Y-100857120D01*
X160040500Y-100024205D01*
X160060185Y-99957166D01*
X160085833Y-99928353D01*
X160197067Y-99837067D01*
X160330217Y-99674824D01*
X160429156Y-99489722D01*
X160490083Y-99288874D01*
X160510655Y-99080000D01*
X160490083Y-98871126D01*
X160429156Y-98670278D01*
X160338136Y-98499991D01*
X160330220Y-98485181D01*
X160330216Y-98485174D01*
X160197067Y-98322932D01*
X160034825Y-98189783D01*
X160034818Y-98189779D01*
X159849723Y-98090844D01*
X159648876Y-98029917D01*
X159440000Y-98009345D01*
X159231123Y-98029917D01*
X159030276Y-98090844D01*
X158845181Y-98189779D01*
X158845174Y-98189783D01*
X158682932Y-98322932D01*
X158549783Y-98485174D01*
X158549779Y-98485181D01*
X158450844Y-98670276D01*
X158389917Y-98871123D01*
X158369345Y-99080000D01*
X158389917Y-99288876D01*
X158450844Y-99489723D01*
X158549779Y-99674818D01*
X158549783Y-99674825D01*
X158682932Y-99837066D01*
X158682933Y-99837067D01*
X158794165Y-99928352D01*
X158833499Y-99986097D01*
X158839500Y-100024205D01*
X158839500Y-100927080D01*
X158819815Y-100994119D01*
X158767011Y-101039874D01*
X158754507Y-101044785D01*
X158730667Y-101052685D01*
X158581342Y-101144789D01*
X158457289Y-101268842D01*
X158365187Y-101418163D01*
X158365186Y-101418166D01*
X158310001Y-101584703D01*
X158310001Y-101584704D01*
X158310000Y-101584704D01*
X158299500Y-101687483D01*
X158299500Y-102312501D01*
X158299501Y-102312519D01*
X158310000Y-102415296D01*
X158310001Y-102415299D01*
X158365185Y-102581831D01*
X158365187Y-102581836D01*
X158457289Y-102731157D01*
X158551304Y-102825172D01*
X158584789Y-102886495D01*
X158579805Y-102956187D01*
X158551305Y-103000534D01*
X158457682Y-103094157D01*
X158365643Y-103243375D01*
X158365641Y-103243380D01*
X158310494Y-103409802D01*
X158310493Y-103409809D01*
X158300000Y-103512513D01*
X158300000Y-103575000D01*
X159626000Y-103575000D01*
X159693039Y-103594685D01*
X159738794Y-103647489D01*
X159750000Y-103699000D01*
X159750000Y-104837499D01*
X159999972Y-104837499D01*
X159999986Y-104837498D01*
X160102697Y-104827005D01*
X160269119Y-104771858D01*
X160269130Y-104771853D01*
X160410903Y-104684406D01*
X160478295Y-104665965D01*
X160544959Y-104686887D01*
X160589728Y-104740529D01*
X160600000Y-104789941D01*
X160600000Y-104824969D01*
X160600001Y-104824987D01*
X160610494Y-104927697D01*
X160665641Y-105094119D01*
X160665643Y-105094124D01*
X160757684Y-105243345D01*
X160881654Y-105367315D01*
X161030875Y-105459356D01*
X161030880Y-105459358D01*
X161197302Y-105514505D01*
X161197309Y-105514506D01*
X161300019Y-105524999D01*
X161749999Y-105524999D01*
X162250000Y-105524999D01*
X162699972Y-105524999D01*
X162699986Y-105524998D01*
X162802697Y-105514505D01*
X162969119Y-105459358D01*
X162969124Y-105459356D01*
X163118345Y-105367315D01*
X163242315Y-105243345D01*
X163334356Y-105094124D01*
X163334358Y-105094119D01*
X163389505Y-104927697D01*
X163389506Y-104927690D01*
X163399999Y-104824986D01*
X163400000Y-104824973D01*
X163400000Y-104700000D01*
X162250000Y-104700000D01*
X162250000Y-105524999D01*
X161749999Y-105524999D01*
X161750000Y-105524998D01*
X161750000Y-104200000D01*
X162250000Y-104200000D01*
X163399999Y-104200000D01*
X163399999Y-104075028D01*
X163399998Y-104075013D01*
X163389505Y-103972302D01*
X163334358Y-103805880D01*
X163334356Y-103805875D01*
X163242315Y-103656654D01*
X163118345Y-103532684D01*
X162969124Y-103440643D01*
X162969119Y-103440641D01*
X162802697Y-103385494D01*
X162802690Y-103385493D01*
X162699986Y-103375000D01*
X162250000Y-103375000D01*
X162250000Y-104200000D01*
X161750000Y-104200000D01*
X161750000Y-103375000D01*
X161300028Y-103375000D01*
X161300012Y-103375001D01*
X161197302Y-103385494D01*
X161030880Y-103440641D01*
X161030871Y-103440645D01*
X160881056Y-103533052D01*
X160813664Y-103551492D01*
X160747000Y-103530569D01*
X160702231Y-103476927D01*
X160692602Y-103440113D01*
X160689506Y-103409803D01*
X160634358Y-103243380D01*
X160634356Y-103243375D01*
X160542315Y-103094154D01*
X160448695Y-103000534D01*
X160415210Y-102939211D01*
X160420194Y-102869519D01*
X160448691Y-102825176D01*
X160542712Y-102731156D01*
X160634814Y-102581834D01*
X160673788Y-102464216D01*
X160713559Y-102406774D01*
X160778075Y-102379951D01*
X160846851Y-102392266D01*
X160879174Y-102415542D01*
X160881344Y-102417712D01*
X161030666Y-102509814D01*
X161197203Y-102564999D01*
X161299991Y-102575500D01*
X162700008Y-102575499D01*
X162802797Y-102564999D01*
X162969334Y-102509814D01*
X163118656Y-102417712D01*
X163242712Y-102293656D01*
X163334814Y-102144334D01*
X163389999Y-101977797D01*
X163400500Y-101875009D01*
X163400499Y-101124992D01*
X163389999Y-101022203D01*
X163334814Y-100855666D01*
X163242712Y-100706344D01*
X163118656Y-100582288D01*
X162969334Y-100490186D01*
X162802797Y-100435001D01*
X162802794Y-100435000D01*
X162711897Y-100425714D01*
X162647205Y-100399317D01*
X162607054Y-100342136D01*
X162600500Y-100302356D01*
X162600500Y-100192507D01*
X162620185Y-100125468D01*
X162659403Y-100086968D01*
X162731156Y-100042712D01*
X162824819Y-99949049D01*
X162886142Y-99915564D01*
X162955834Y-99920548D01*
X163000181Y-99949049D01*
X163093844Y-100042712D01*
X163243166Y-100134814D01*
X163409703Y-100189999D01*
X163512491Y-100200500D01*
X164137508Y-100200499D01*
X164137516Y-100200498D01*
X164137519Y-100200498D01*
X164215745Y-100192507D01*
X164240297Y-100189999D01*
X164406834Y-100134814D01*
X164556156Y-100042712D01*
X164680212Y-99918656D01*
X164772314Y-99769334D01*
X164800095Y-99685495D01*
X164839868Y-99628051D01*
X164904384Y-99601228D01*
X164917801Y-99600500D01*
X167082199Y-99600500D01*
X167149238Y-99620185D01*
X167194993Y-99672989D01*
X167199903Y-99685492D01*
X167227686Y-99769334D01*
X167319788Y-99918656D01*
X167443844Y-100042712D01*
X167593166Y-100134814D01*
X167759703Y-100189999D01*
X167862491Y-100200500D01*
X168487508Y-100200499D01*
X168487516Y-100200498D01*
X168487519Y-100200498D01*
X168565745Y-100192507D01*
X168590297Y-100189999D01*
X168756834Y-100134814D01*
X168906156Y-100042712D01*
X168999819Y-99949049D01*
X169061142Y-99915564D01*
X169130834Y-99920548D01*
X169175181Y-99949049D01*
X169268844Y-100042712D01*
X169418166Y-100134814D01*
X169584703Y-100189999D01*
X169687491Y-100200500D01*
X170312508Y-100200499D01*
X170312516Y-100200498D01*
X170312519Y-100200498D01*
X170390745Y-100192507D01*
X170415297Y-100189999D01*
X170581834Y-100134814D01*
X170731156Y-100042712D01*
X170855212Y-99918656D01*
X170947314Y-99769334D01*
X170975095Y-99685495D01*
X171014868Y-99628051D01*
X171079384Y-99601228D01*
X171092801Y-99600500D01*
X173493331Y-99600500D01*
X173493347Y-99600501D01*
X173500943Y-99600501D01*
X173659054Y-99600501D01*
X173659057Y-99600501D01*
X173811785Y-99559577D01*
X173861904Y-99530639D01*
X173948716Y-99480520D01*
X174060520Y-99368716D01*
X174060520Y-99368714D01*
X174070728Y-99358507D01*
X174070730Y-99358504D01*
X174962416Y-98466818D01*
X175023739Y-98433333D01*
X175050097Y-98430499D01*
X176397871Y-98430499D01*
X176397872Y-98430499D01*
X176457483Y-98424091D01*
X176592331Y-98373796D01*
X176707546Y-98287546D01*
X176793796Y-98172331D01*
X176844091Y-98037483D01*
X176850500Y-97977873D01*
X176850499Y-96182128D01*
X176844091Y-96122517D01*
X176829987Y-96084703D01*
X176793797Y-95987671D01*
X176793793Y-95987664D01*
X176707547Y-95872455D01*
X176707544Y-95872452D01*
X176592335Y-95786206D01*
X176592328Y-95786202D01*
X176460401Y-95736997D01*
X176404467Y-95695126D01*
X176380050Y-95629662D01*
X176394902Y-95561389D01*
X176416053Y-95533133D01*
X176538108Y-95411078D01*
X176673600Y-95217578D01*
X176773429Y-95003492D01*
X176773432Y-95003486D01*
X176830636Y-94790000D01*
X175933012Y-94790000D01*
X175965925Y-94732993D01*
X176000000Y-94605826D01*
X176000000Y-94474174D01*
X175965925Y-94347007D01*
X175933012Y-94290000D01*
X176830636Y-94290000D01*
X176830635Y-94289999D01*
X176773432Y-94076513D01*
X176773429Y-94076507D01*
X176673600Y-93862422D01*
X176673599Y-93862420D01*
X176538113Y-93668926D01*
X176538108Y-93668920D01*
X176371078Y-93501890D01*
X176185405Y-93371879D01*
X176141780Y-93317302D01*
X176134588Y-93247804D01*
X176166110Y-93185449D01*
X176185406Y-93168730D01*
X176371401Y-93038495D01*
X176538495Y-92871401D01*
X176674035Y-92677830D01*
X176773903Y-92463663D01*
X176835063Y-92235408D01*
X176855659Y-92000000D01*
X176835063Y-91764592D01*
X176787511Y-91587123D01*
X176773905Y-91536344D01*
X176773904Y-91536341D01*
X176773903Y-91536337D01*
X176674035Y-91322171D01*
X176669926Y-91316302D01*
X176538494Y-91128597D01*
X176371402Y-90961506D01*
X176371395Y-90961501D01*
X176177834Y-90825967D01*
X176177830Y-90825965D01*
X176149585Y-90812794D01*
X175963663Y-90726097D01*
X175963659Y-90726096D01*
X175963655Y-90726094D01*
X175735413Y-90664938D01*
X175735403Y-90664936D01*
X175500001Y-90644341D01*
X175499998Y-90644341D01*
X175275830Y-90663953D01*
X175207330Y-90650186D01*
X175177342Y-90628106D01*
X171512590Y-86963355D01*
X171512588Y-86963352D01*
X171393717Y-86844481D01*
X171393716Y-86844480D01*
X171306904Y-86794360D01*
X171306904Y-86794359D01*
X171306900Y-86794358D01*
X171256785Y-86765423D01*
X171104057Y-86724499D01*
X170945943Y-86724499D01*
X170938347Y-86724499D01*
X170938331Y-86724500D01*
X163192508Y-86724500D01*
X163125469Y-86704815D01*
X163086969Y-86665597D01*
X163042712Y-86593844D01*
X162949049Y-86500181D01*
X162915564Y-86438858D01*
X162920548Y-86369166D01*
X162949049Y-86324819D01*
X163042712Y-86231156D01*
X163134814Y-86081834D01*
X163189999Y-85915297D01*
X163200500Y-85812509D01*
X163200499Y-85187492D01*
X163189999Y-85084703D01*
X163134814Y-84918166D01*
X163042712Y-84768844D01*
X162918656Y-84644788D01*
X162796557Y-84569477D01*
X162769336Y-84552687D01*
X162769331Y-84552685D01*
X162767862Y-84552198D01*
X162602797Y-84497501D01*
X162602795Y-84497500D01*
X162500016Y-84487000D01*
X162500009Y-84487000D01*
X161845684Y-84487000D01*
X161783677Y-84470383D01*
X161781903Y-84469358D01*
X161781901Y-84469358D01*
X161731785Y-84440423D01*
X161579057Y-84399499D01*
X161420943Y-84399499D01*
X161413347Y-84399499D01*
X161413331Y-84399500D01*
X159431058Y-84399500D01*
X159364019Y-84379815D01*
X159325519Y-84340597D01*
X159273552Y-84256344D01*
X159242712Y-84206344D01*
X159242708Y-84206340D01*
X159238812Y-84201413D01*
X159212671Y-84136618D01*
X159225710Y-84067975D01*
X159273789Y-84017279D01*
X159336077Y-84000500D01*
X180375500Y-84000500D01*
X180442539Y-84020185D01*
X180488294Y-84072989D01*
X180499500Y-84124500D01*
X180499500Y-106375500D01*
X180479815Y-106442539D01*
X180427011Y-106488294D01*
X180375500Y-106499500D01*
X123624500Y-106499500D01*
X123557461Y-106479815D01*
X123511706Y-106427011D01*
X123500500Y-106375500D01*
X123500500Y-104137486D01*
X158300001Y-104137486D01*
X158310494Y-104240197D01*
X158365641Y-104406619D01*
X158365643Y-104406624D01*
X158457684Y-104555845D01*
X158581654Y-104679815D01*
X158730875Y-104771856D01*
X158730880Y-104771858D01*
X158897302Y-104827005D01*
X158897309Y-104827006D01*
X159000019Y-104837499D01*
X159249999Y-104837499D01*
X159250000Y-104837498D01*
X159250000Y-104075000D01*
X158300001Y-104075000D01*
X158300001Y-104137486D01*
X123500500Y-104137486D01*
X123500500Y-84124500D01*
X123520185Y-84057461D01*
X123572989Y-84011706D01*
X123624500Y-84000500D01*
X151713770Y-84000500D01*
X151780809Y-84020185D01*
G37*
%TD.AperFunction*%
%TA.AperFunction,Conductor*%
G36*
X160874531Y-87945185D02*
G01*
X160913029Y-87984401D01*
X160957288Y-88056156D01*
X161081344Y-88180212D01*
X161230666Y-88272314D01*
X161397203Y-88327499D01*
X161499991Y-88338000D01*
X162500008Y-88337999D01*
X162500016Y-88337998D01*
X162500019Y-88337998D01*
X162556302Y-88332248D01*
X162602797Y-88327499D01*
X162769334Y-88272314D01*
X162918656Y-88180212D01*
X163042712Y-88056156D01*
X163086970Y-87984402D01*
X163138917Y-87937679D01*
X163192508Y-87925500D01*
X170724903Y-87925500D01*
X170791942Y-87945185D01*
X170812584Y-87961819D01*
X174215903Y-91365139D01*
X174249388Y-91426462D01*
X174244404Y-91496154D01*
X174240606Y-91505221D01*
X174226095Y-91536341D01*
X174164938Y-91764586D01*
X174164936Y-91764596D01*
X174144341Y-91999999D01*
X174144341Y-92000000D01*
X174164936Y-92235403D01*
X174164938Y-92235413D01*
X174226094Y-92463655D01*
X174226096Y-92463659D01*
X174226097Y-92463663D01*
X174290581Y-92601949D01*
X174325965Y-92677830D01*
X174325967Y-92677834D01*
X174394354Y-92775500D01*
X174456335Y-92864018D01*
X174461501Y-92871395D01*
X174461506Y-92871402D01*
X174628597Y-93038493D01*
X174628603Y-93038498D01*
X174691015Y-93082199D01*
X174765792Y-93134559D01*
X174814594Y-93168730D01*
X174858219Y-93223307D01*
X174865413Y-93292805D01*
X174833890Y-93355160D01*
X174814595Y-93371880D01*
X174628922Y-93501890D01*
X174628920Y-93501891D01*
X174461891Y-93668920D01*
X174461886Y-93668926D01*
X174326400Y-93862420D01*
X174326399Y-93862422D01*
X174226570Y-94076507D01*
X174226567Y-94076513D01*
X174169364Y-94289999D01*
X174169364Y-94290000D01*
X175066988Y-94290000D01*
X175034075Y-94347007D01*
X175000000Y-94474174D01*
X175000000Y-94605826D01*
X175034075Y-94732993D01*
X175066988Y-94790000D01*
X174169364Y-94790000D01*
X174226567Y-95003486D01*
X174226570Y-95003492D01*
X174326399Y-95217578D01*
X174461894Y-95411082D01*
X174583946Y-95533134D01*
X174617431Y-95594457D01*
X174612447Y-95664149D01*
X174570575Y-95720082D01*
X174539598Y-95736997D01*
X174407671Y-95786202D01*
X174407664Y-95786206D01*
X174292455Y-95872452D01*
X174292452Y-95872455D01*
X174206206Y-95987664D01*
X174206202Y-95987671D01*
X174155908Y-96122517D01*
X174150973Y-96168425D01*
X174149501Y-96182123D01*
X174149500Y-96182135D01*
X174149500Y-97529902D01*
X174129815Y-97596941D01*
X174113181Y-97617583D01*
X173367584Y-98363181D01*
X173306261Y-98396666D01*
X173279903Y-98399500D01*
X171092801Y-98399500D01*
X171025762Y-98379815D01*
X170980007Y-98327011D01*
X170975095Y-98314504D01*
X170947314Y-98230666D01*
X170855212Y-98081344D01*
X170731156Y-97957288D01*
X170581834Y-97865186D01*
X170415297Y-97810001D01*
X170415295Y-97810000D01*
X170312510Y-97799500D01*
X169687498Y-97799500D01*
X169687480Y-97799501D01*
X169584703Y-97810000D01*
X169584700Y-97810001D01*
X169418168Y-97865185D01*
X169418163Y-97865187D01*
X169268842Y-97957289D01*
X169175181Y-98050951D01*
X169113858Y-98084436D01*
X169044166Y-98079452D01*
X168999819Y-98050951D01*
X168906157Y-97957289D01*
X168906156Y-97957288D01*
X168756834Y-97865186D01*
X168756832Y-97865185D01*
X168756830Y-97865184D01*
X168756829Y-97865183D01*
X168685495Y-97841545D01*
X168628050Y-97801772D01*
X168601228Y-97737256D01*
X168600500Y-97723840D01*
X168600500Y-96931057D01*
X168620185Y-96864018D01*
X168659401Y-96825520D01*
X168793656Y-96742712D01*
X168917712Y-96618656D01*
X169009814Y-96469334D01*
X169064999Y-96302797D01*
X169075500Y-96200009D01*
X169075500Y-96199986D01*
X169875001Y-96199986D01*
X169885494Y-96302697D01*
X169940641Y-96469119D01*
X169940643Y-96469124D01*
X170032684Y-96618345D01*
X170156654Y-96742315D01*
X170305875Y-96834356D01*
X170305880Y-96834358D01*
X170472302Y-96889505D01*
X170472309Y-96889506D01*
X170575019Y-96899999D01*
X170699999Y-96899999D01*
X171200000Y-96899999D01*
X171324972Y-96899999D01*
X171324986Y-96899998D01*
X171427697Y-96889505D01*
X171594119Y-96834358D01*
X171594124Y-96834356D01*
X171743345Y-96742315D01*
X171867315Y-96618345D01*
X171959356Y-96469124D01*
X171959358Y-96469119D01*
X172014505Y-96302697D01*
X172014506Y-96302690D01*
X172024999Y-96199986D01*
X172025000Y-96199973D01*
X172025000Y-95750000D01*
X171200000Y-95750000D01*
X171200000Y-96899999D01*
X170699999Y-96899999D01*
X170700000Y-96899998D01*
X170700000Y-95750000D01*
X169875001Y-95750000D01*
X169875001Y-96199986D01*
X169075500Y-96199986D01*
X169075499Y-94800013D01*
X169875000Y-94800013D01*
X169875000Y-95250000D01*
X170700000Y-95250000D01*
X171200000Y-95250000D01*
X172024999Y-95250000D01*
X172024999Y-94800028D01*
X172024998Y-94800013D01*
X172014505Y-94697302D01*
X171959358Y-94530880D01*
X171959356Y-94530875D01*
X171867315Y-94381654D01*
X171743345Y-94257684D01*
X171594124Y-94165643D01*
X171594119Y-94165641D01*
X171427697Y-94110494D01*
X171427690Y-94110493D01*
X171324986Y-94100000D01*
X171200000Y-94100000D01*
X171200000Y-95250000D01*
X170700000Y-95250000D01*
X170700000Y-94100000D01*
X170575027Y-94100000D01*
X170575012Y-94100001D01*
X170472302Y-94110494D01*
X170305880Y-94165641D01*
X170305875Y-94165643D01*
X170156654Y-94257684D01*
X170032684Y-94381654D01*
X169940643Y-94530875D01*
X169940641Y-94530880D01*
X169885494Y-94697302D01*
X169885493Y-94697309D01*
X169875000Y-94800013D01*
X169075499Y-94800013D01*
X169075499Y-94799992D01*
X169074803Y-94793183D01*
X169064999Y-94697203D01*
X169064998Y-94697200D01*
X169056794Y-94672441D01*
X169009814Y-94530666D01*
X168917712Y-94381344D01*
X168793656Y-94257288D01*
X168644334Y-94165186D01*
X168477797Y-94110001D01*
X168477795Y-94110000D01*
X168375016Y-94099500D01*
X168375009Y-94099500D01*
X168274500Y-94099500D01*
X168207461Y-94079815D01*
X168161706Y-94027011D01*
X168150500Y-93975500D01*
X168150500Y-92931057D01*
X168170185Y-92864018D01*
X168209401Y-92825520D01*
X168343656Y-92742712D01*
X168467712Y-92618656D01*
X168559814Y-92469334D01*
X168614999Y-92302797D01*
X168625500Y-92200009D01*
X168625500Y-92199986D01*
X169425001Y-92199986D01*
X169435494Y-92302697D01*
X169490641Y-92469119D01*
X169490643Y-92469124D01*
X169582684Y-92618345D01*
X169706654Y-92742315D01*
X169855875Y-92834356D01*
X169855880Y-92834358D01*
X170022302Y-92889505D01*
X170022309Y-92889506D01*
X170125019Y-92899999D01*
X170249999Y-92899999D01*
X170750000Y-92899999D01*
X170874972Y-92899999D01*
X170874986Y-92899998D01*
X170977697Y-92889505D01*
X171144119Y-92834358D01*
X171144124Y-92834356D01*
X171293345Y-92742315D01*
X171417315Y-92618345D01*
X171509356Y-92469124D01*
X171509358Y-92469119D01*
X171564505Y-92302697D01*
X171564506Y-92302690D01*
X171574999Y-92199986D01*
X171575000Y-92199973D01*
X171575000Y-91750000D01*
X170750000Y-91750000D01*
X170750000Y-92899999D01*
X170249999Y-92899999D01*
X170250000Y-92899998D01*
X170250000Y-91750000D01*
X169425001Y-91750000D01*
X169425001Y-92199986D01*
X168625500Y-92199986D01*
X168625499Y-90800013D01*
X169425000Y-90800013D01*
X169425000Y-91250000D01*
X170250000Y-91250000D01*
X170750000Y-91250000D01*
X171574999Y-91250000D01*
X171574999Y-90800028D01*
X171574998Y-90800013D01*
X171564505Y-90697302D01*
X171509358Y-90530880D01*
X171509356Y-90530875D01*
X171417315Y-90381654D01*
X171293345Y-90257684D01*
X171144124Y-90165643D01*
X171144119Y-90165641D01*
X170977697Y-90110494D01*
X170977690Y-90110493D01*
X170874986Y-90100000D01*
X170750000Y-90100000D01*
X170750000Y-91250000D01*
X170250000Y-91250000D01*
X170250000Y-90100000D01*
X170125027Y-90100000D01*
X170125012Y-90100001D01*
X170022302Y-90110494D01*
X169855880Y-90165641D01*
X169855875Y-90165643D01*
X169706654Y-90257684D01*
X169582684Y-90381654D01*
X169490643Y-90530875D01*
X169490641Y-90530880D01*
X169435494Y-90697302D01*
X169435493Y-90697309D01*
X169425000Y-90800013D01*
X168625499Y-90800013D01*
X168625499Y-90799992D01*
X168614999Y-90697203D01*
X168559814Y-90530666D01*
X168467712Y-90381344D01*
X168343656Y-90257288D01*
X168194334Y-90165186D01*
X168027797Y-90110001D01*
X168027795Y-90110000D01*
X167925010Y-90099500D01*
X167174998Y-90099500D01*
X167174980Y-90099501D01*
X167073689Y-90109849D01*
X167004996Y-90097079D01*
X166973407Y-90074172D01*
X166837590Y-89938355D01*
X166837588Y-89938352D01*
X166718717Y-89819481D01*
X166718709Y-89819475D01*
X166629923Y-89768215D01*
X166629922Y-89768215D01*
X166581785Y-89740423D01*
X166429057Y-89699499D01*
X166270943Y-89699499D01*
X166263347Y-89699499D01*
X166263331Y-89699500D01*
X163620942Y-89699500D01*
X163468214Y-89740423D01*
X163451627Y-89750000D01*
X163420078Y-89768215D01*
X163420077Y-89768215D01*
X163331290Y-89819475D01*
X163331282Y-89819481D01*
X163261051Y-89889713D01*
X163219480Y-89931284D01*
X163219478Y-89931286D01*
X163147016Y-90003748D01*
X163076592Y-90074172D01*
X163015269Y-90107656D01*
X162976309Y-90109848D01*
X162875011Y-90099500D01*
X162124998Y-90099500D01*
X162124980Y-90099501D01*
X162022203Y-90110000D01*
X162022200Y-90110001D01*
X161855668Y-90165185D01*
X161855663Y-90165187D01*
X161706342Y-90257289D01*
X161582289Y-90381342D01*
X161490187Y-90530663D01*
X161490185Y-90530668D01*
X161465772Y-90604341D01*
X161449758Y-90652671D01*
X161435001Y-90697204D01*
X161435000Y-90697205D01*
X161429801Y-90748102D01*
X161403405Y-90812794D01*
X161346224Y-90852946D01*
X161306443Y-90859500D01*
X160384206Y-90859500D01*
X160317167Y-90839815D01*
X160288353Y-90814165D01*
X160197067Y-90702932D01*
X160034825Y-90569783D01*
X160034818Y-90569779D01*
X159849723Y-90470844D01*
X159648876Y-90409917D01*
X159440000Y-90389345D01*
X159231123Y-90409917D01*
X159030276Y-90470844D01*
X158845181Y-90569779D01*
X158845174Y-90569783D01*
X158682932Y-90702932D01*
X158549783Y-90865174D01*
X158549779Y-90865181D01*
X158450844Y-91050276D01*
X158389917Y-91251123D01*
X158369345Y-91460000D01*
X158383448Y-91603203D01*
X158370429Y-91671849D01*
X158347726Y-91703037D01*
X155687584Y-94363181D01*
X155626261Y-94396666D01*
X155599903Y-94399500D01*
X152659452Y-94399500D01*
X152592413Y-94379815D01*
X152546658Y-94327011D01*
X152536714Y-94257853D01*
X152540791Y-94239505D01*
X152550083Y-94208874D01*
X152570655Y-94000000D01*
X152550083Y-93791126D01*
X152489156Y-93590278D01*
X152398716Y-93421076D01*
X152390220Y-93405181D01*
X152390216Y-93405174D01*
X152257067Y-93242932D01*
X152094825Y-93109783D01*
X152094818Y-93109779D01*
X151909723Y-93010844D01*
X151708876Y-92949917D01*
X151500000Y-92929345D01*
X151292612Y-92949770D01*
X151239793Y-92941936D01*
X151239635Y-92942527D01*
X151234503Y-92941152D01*
X151233013Y-92940931D01*
X151231792Y-92940425D01*
X151231785Y-92940423D01*
X151079057Y-92899499D01*
X150920943Y-92899499D01*
X150913347Y-92899499D01*
X150913331Y-92899500D01*
X149724500Y-92899500D01*
X149657461Y-92879815D01*
X149611706Y-92827011D01*
X149600500Y-92775500D01*
X149600500Y-89192507D01*
X149620185Y-89125468D01*
X149659403Y-89086968D01*
X149731156Y-89042712D01*
X149824819Y-88949049D01*
X149886142Y-88915564D01*
X149955834Y-88920548D01*
X150000181Y-88949049D01*
X150093844Y-89042712D01*
X150165596Y-89086968D01*
X150212321Y-89138915D01*
X150224500Y-89192507D01*
X150224500Y-90698330D01*
X150224499Y-90698348D01*
X150224499Y-90864054D01*
X150224498Y-90864054D01*
X150265424Y-91016789D01*
X150265425Y-91016790D01*
X150289631Y-91058715D01*
X150289632Y-91058717D01*
X150344475Y-91153709D01*
X150344481Y-91153717D01*
X150398181Y-91207417D01*
X150431666Y-91268740D01*
X150434500Y-91295098D01*
X150434500Y-92072870D01*
X150434501Y-92072876D01*
X150440908Y-92132483D01*
X150491202Y-92267328D01*
X150491206Y-92267335D01*
X150577452Y-92382544D01*
X150577455Y-92382547D01*
X150692664Y-92468793D01*
X150692671Y-92468797D01*
X150827517Y-92519091D01*
X150827516Y-92519091D01*
X150834444Y-92519835D01*
X150887127Y-92525500D01*
X152112872Y-92525499D01*
X152172483Y-92519091D01*
X152307331Y-92468796D01*
X152422546Y-92382546D01*
X152508796Y-92267331D01*
X152559091Y-92132483D01*
X152565500Y-92072873D01*
X152565499Y-90847128D01*
X152559091Y-90787517D01*
X152544390Y-90748102D01*
X152508797Y-90652671D01*
X152508793Y-90652664D01*
X152422547Y-90537455D01*
X152422544Y-90537452D01*
X152307335Y-90451206D01*
X152307328Y-90451202D01*
X152172482Y-90400908D01*
X152172483Y-90400908D01*
X152112883Y-90394501D01*
X152112881Y-90394500D01*
X152112873Y-90394500D01*
X152112865Y-90394500D01*
X151549500Y-90394500D01*
X151482461Y-90374815D01*
X151436706Y-90322011D01*
X151425500Y-90270500D01*
X151425500Y-89192507D01*
X151445185Y-89125468D01*
X151484403Y-89086968D01*
X151556156Y-89042712D01*
X151680212Y-88918656D01*
X151680219Y-88918644D01*
X151683011Y-88915114D01*
X151740029Y-88874731D01*
X151809827Y-88871586D01*
X151867966Y-88904334D01*
X151881344Y-88917712D01*
X152030666Y-89009814D01*
X152197203Y-89064999D01*
X152299991Y-89075500D01*
X153700008Y-89075499D01*
X153802797Y-89064999D01*
X153969334Y-89009814D01*
X154118656Y-88917712D01*
X154242712Y-88793656D01*
X154325519Y-88659402D01*
X154377467Y-88612679D01*
X154431058Y-88600500D01*
X156599782Y-88600500D01*
X156666821Y-88620185D01*
X156705319Y-88659401D01*
X156757288Y-88743656D01*
X156881344Y-88867712D01*
X157030666Y-88959814D01*
X157197203Y-89014999D01*
X157299991Y-89025500D01*
X158700008Y-89025499D01*
X158802797Y-89014999D01*
X158969334Y-88959814D01*
X159118656Y-88867712D01*
X159242712Y-88743656D01*
X159334814Y-88594334D01*
X159389999Y-88427797D01*
X159400500Y-88325009D01*
X159400499Y-88049498D01*
X159420183Y-87982461D01*
X159472987Y-87936706D01*
X159524499Y-87925500D01*
X160807492Y-87925500D01*
X160874531Y-87945185D01*
G37*
%TD.AperFunction*%
%TA.AperFunction,Conductor*%
G36*
X138455834Y-89420548D02*
G01*
X138500181Y-89449049D01*
X138593844Y-89542712D01*
X138743166Y-89634814D01*
X138909703Y-89689999D01*
X139012491Y-89700500D01*
X139624902Y-89700499D01*
X139691941Y-89720183D01*
X139712583Y-89736818D01*
X139804155Y-89828390D01*
X139837640Y-89889713D01*
X139832656Y-89959405D01*
X139804160Y-90003748D01*
X139800451Y-90007456D01*
X139714206Y-90122664D01*
X139714202Y-90122671D01*
X139663994Y-90257288D01*
X139663909Y-90257517D01*
X139657500Y-90317127D01*
X139657500Y-90317134D01*
X139657500Y-90317135D01*
X139657500Y-91062870D01*
X139657501Y-91062876D01*
X139663908Y-91122483D01*
X139714202Y-91257328D01*
X139718454Y-91265114D01*
X139715280Y-91266846D01*
X139733659Y-91316302D01*
X139718725Y-91384557D01*
X139718117Y-91385502D01*
X139714202Y-91392671D01*
X139663910Y-91527513D01*
X139663909Y-91527517D01*
X139657500Y-91587127D01*
X139657500Y-91587134D01*
X139657500Y-91587135D01*
X139657500Y-92332870D01*
X139657501Y-92332876D01*
X139663908Y-92392483D01*
X139714202Y-92527328D01*
X139718454Y-92535114D01*
X139715280Y-92536846D01*
X139733659Y-92586302D01*
X139718725Y-92654557D01*
X139718117Y-92655502D01*
X139714202Y-92662671D01*
X139667496Y-92787899D01*
X139663909Y-92797517D01*
X139657500Y-92857127D01*
X139657500Y-92857134D01*
X139657500Y-92857135D01*
X139657500Y-93602870D01*
X139657501Y-93602876D01*
X139663908Y-93662483D01*
X139714202Y-93797328D01*
X139718454Y-93805114D01*
X139715280Y-93806846D01*
X139733659Y-93856302D01*
X139718725Y-93924557D01*
X139718117Y-93925502D01*
X139714202Y-93932671D01*
X139663910Y-94067513D01*
X139663909Y-94067517D01*
X139657500Y-94127127D01*
X139657500Y-94127134D01*
X139657500Y-94127135D01*
X139657500Y-94872870D01*
X139657501Y-94872876D01*
X139663908Y-94932483D01*
X139714202Y-95067328D01*
X139714206Y-95067335D01*
X139800452Y-95182544D01*
X139800455Y-95182547D01*
X139915664Y-95268793D01*
X139915671Y-95268797D01*
X139960618Y-95285561D01*
X140050517Y-95319091D01*
X140110127Y-95325500D01*
X140197499Y-95325499D01*
X140264537Y-95345183D01*
X140310293Y-95397986D01*
X140321499Y-95449499D01*
X140321499Y-95501054D01*
X140321498Y-95501054D01*
X140362423Y-95653785D01*
X140381884Y-95687492D01*
X140381883Y-95687492D01*
X140381884Y-95687493D01*
X140441475Y-95790709D01*
X140441481Y-95790717D01*
X140560349Y-95909585D01*
X140560355Y-95909590D01*
X140763181Y-96112416D01*
X140796666Y-96173739D01*
X140799500Y-96200097D01*
X140799501Y-96815500D01*
X140779817Y-96882539D01*
X140727013Y-96928294D01*
X140675501Y-96939500D01*
X129289091Y-96939500D01*
X129222052Y-96919815D01*
X129176711Y-96867909D01*
X129174037Y-96862175D01*
X129174034Y-96862170D01*
X129174033Y-96862169D01*
X129038495Y-96668599D01*
X129038494Y-96668597D01*
X128871402Y-96501506D01*
X128871396Y-96501501D01*
X128685842Y-96371575D01*
X128642217Y-96316998D01*
X128635023Y-96247500D01*
X128666546Y-96185145D01*
X128685842Y-96168425D01*
X128751405Y-96122517D01*
X128871401Y-96038495D01*
X129038495Y-95871401D01*
X129174035Y-95677830D01*
X129176707Y-95672097D01*
X129222878Y-95619658D01*
X129289091Y-95600500D01*
X130099782Y-95600500D01*
X130166821Y-95620185D01*
X130205319Y-95659401D01*
X130257288Y-95743656D01*
X130381344Y-95867712D01*
X130530666Y-95959814D01*
X130697203Y-96014999D01*
X130799991Y-96025500D01*
X132200008Y-96025499D01*
X132302797Y-96014999D01*
X132469334Y-95959814D01*
X132618656Y-95867712D01*
X132742712Y-95743656D01*
X132834814Y-95594334D01*
X132889999Y-95427797D01*
X132900500Y-95325009D01*
X132900499Y-94872844D01*
X134236000Y-94872844D01*
X134242401Y-94932372D01*
X134242403Y-94932379D01*
X134292645Y-95067086D01*
X134292649Y-95067093D01*
X134378809Y-95182187D01*
X134378812Y-95182190D01*
X134493906Y-95268350D01*
X134493913Y-95268354D01*
X134628620Y-95318596D01*
X134628627Y-95318598D01*
X134688155Y-95324999D01*
X134688172Y-95325000D01*
X135250000Y-95325000D01*
X135750000Y-95325000D01*
X136311828Y-95325000D01*
X136311844Y-95324999D01*
X136371372Y-95318598D01*
X136371379Y-95318596D01*
X136506086Y-95268354D01*
X136506093Y-95268350D01*
X136621187Y-95182190D01*
X136621190Y-95182187D01*
X136707350Y-95067093D01*
X136707354Y-95067086D01*
X136757596Y-94932379D01*
X136757598Y-94932372D01*
X136763999Y-94872844D01*
X136764000Y-94872827D01*
X136764000Y-94750000D01*
X135750000Y-94750000D01*
X135750000Y-95325000D01*
X135250000Y-95325000D01*
X135250000Y-94750000D01*
X134236000Y-94750000D01*
X134236000Y-94872844D01*
X132900499Y-94872844D01*
X132900499Y-94574992D01*
X132890150Y-94473686D01*
X132902919Y-94404996D01*
X132925824Y-94373409D01*
X133432416Y-93866819D01*
X133493739Y-93833334D01*
X133520097Y-93830500D01*
X134152250Y-93830500D01*
X134219289Y-93850185D01*
X134265044Y-93902989D01*
X134274988Y-93972147D01*
X134268432Y-93997833D01*
X134242403Y-94067620D01*
X134242401Y-94067627D01*
X134236000Y-94127155D01*
X134236000Y-94250000D01*
X136764000Y-94250000D01*
X136764000Y-94127172D01*
X136763999Y-94127155D01*
X136757598Y-94067627D01*
X136757597Y-94067623D01*
X136707349Y-93932904D01*
X136703101Y-93925123D01*
X136706360Y-93923343D01*
X136688046Y-93874374D01*
X136702836Y-93806087D01*
X136704023Y-93804239D01*
X136707793Y-93797335D01*
X136707792Y-93797335D01*
X136707796Y-93797331D01*
X136758091Y-93662483D01*
X136764500Y-93602873D01*
X136764499Y-92857128D01*
X136758091Y-92797517D01*
X136754504Y-92787899D01*
X136707797Y-92662670D01*
X136703547Y-92654888D01*
X136706757Y-92653134D01*
X136688361Y-92604001D01*
X136703127Y-92535709D01*
X136703752Y-92534736D01*
X136707797Y-92527329D01*
X136722520Y-92487853D01*
X136758091Y-92392483D01*
X136764500Y-92332873D01*
X136764499Y-91587128D01*
X136758091Y-91527517D01*
X136758090Y-91527513D01*
X136707797Y-91392670D01*
X136703547Y-91384888D01*
X136706757Y-91383134D01*
X136688361Y-91334001D01*
X136703127Y-91265709D01*
X136703752Y-91264736D01*
X136707797Y-91257329D01*
X136726813Y-91206344D01*
X136758091Y-91122483D01*
X136764500Y-91062873D01*
X136764499Y-90326096D01*
X136784183Y-90259058D01*
X136800814Y-90238420D01*
X137302416Y-89736817D01*
X137363739Y-89703333D01*
X137390097Y-89700499D01*
X137812502Y-89700499D01*
X137812508Y-89700499D01*
X137822298Y-89699499D01*
X137847681Y-89696906D01*
X137915297Y-89689999D01*
X138081834Y-89634814D01*
X138231156Y-89542712D01*
X138324819Y-89449049D01*
X138386142Y-89415564D01*
X138455834Y-89420548D01*
G37*
%TD.AperFunction*%
M02*
